<?xml version="1.0" encoding="UTF-8"?>
<!DOCTYPE svg PUBLIC "-//W3C//DTD SVG 1.1//EN" "http://www.w3.org/Graphics/SVG/1.1/DTD/svg11.dtd">
<svg xmlns="http://www.w3.org/2000/svg" version="1.1" width="1024px" height="1024px" style="shape-rendering:geometricPrecision; text-rendering:geometricPrecision; image-rendering:optimizeQuality; fill-rule:evenodd; clip-rule:evenodd" xmlns:xlink="http://www.w3.org/1999/xlink">
<g><path style="opacity:1" fill="transparent" d="M -0.5,-0.5 C 340.833,-0.5 682.167,-0.5 1023.5,-0.5C 1023.5,340.833 1023.5,682.167 1023.5,1023.5C 682.167,1023.5 340.833,1023.5 -0.5,1023.5C -0.5,682.167 -0.5,340.833 -0.5,-0.5 Z"/></g>
<g><path style="opacity:1" fill="#022228" d="M 378.5,158.5 C 466.666,159.666 554.999,159.832 643.5,159C 652.398,151.259 661.398,143.759 670.5,136.5C 683.772,125.194 697.439,114.36 711.5,104C 725.177,97.7611 734.677,101.594 740,115.5C 740.167,134.842 740.667,154.175 741.5,173.5C 760.866,186.738 772.366,205.072 776,228.5C 776.167,292.503 776.667,356.503 777.5,420.5C 784.461,425.548 785.961,431.882 782,439.5C 780.269,441.617 778.102,443.117 775.5,444C 754.663,444.829 733.996,444.663 713.5,443.5C 711.882,441.215 709.882,439.215 707.5,437.5C 709.003,437.165 710.336,437.165 711.5,437.5C 710.757,435.281 709.757,433.947 708.5,433.5C 709.388,431.845 709.888,430.178 710,428.5C 708.383,429.851 707.216,431.518 706.5,433.5C 704.958,432.253 703.458,432.253 702,433.5C 702.957,431.458 704.123,429.291 705.5,427C 704.99,425.174 704.156,425.007 703,426.5C 700.574,424.553 700.407,422.886 702.5,421.5C 716.167,421.5 729.833,421.5 743.5,421.5C 743.832,357.331 743.499,293.331 742.5,229.5C 738.95,213.115 729.617,201.282 714.5,194C 711.96,191.795 709.793,189.295 708,186.5C 706.892,174.222 706.059,161.889 705.5,149.5C 691.147,161.523 676.814,173.523 662.5,185.5C 660.473,185.338 658.473,185.505 656.5,186C 656.957,186.414 657.291,186.914 657.5,187.5C 653.955,188.791 650.455,188.791 647,187.5C 641.784,188.735 636.45,189.402 631,189.5C 622.061,189.421 613.394,188.421 605,186.5C 604.333,189.167 603.667,189.167 603,186.5C 602.333,189.167 601.667,189.167 601,186.5C 600.333,189.167 599.667,189.167 599,186.5C 598.333,189.167 597.667,189.167 597,186.5C 596.333,189.167 595.667,189.167 595,186.5C 594.333,189.167 593.667,189.167 593,186.5C 592.667,187.167 592.333,187.833 592,188.5C 585.981,188.105 579.814,188.105 573.5,188.5C 567.754,188.474 562.254,187.807 557,186.5C 556.333,189.167 555.667,189.167 555,186.5C 554.333,189.167 553.667,189.167 553,186.5C 551.667,189.167 550.333,189.167 549,186.5C 548.667,187.167 548.333,187.833 548,188.5C 545.217,186.621 542.717,186.621 540.5,188.5C 534.573,188.033 528.573,188.033 522.5,188.5C 517.746,188.466 513.246,187.799 509,186.5C 508.333,189.167 507.667,189.167 507,186.5C 506.333,189.167 505.667,189.167 505,186.5C 504.667,187.167 504.333,187.833 504,188.5C 468.38,188.326 429.546,188.326 387.5,188.5C 370.207,190.504 352.874,190.671 335.5,189C 334.333,188.5 333.5,187.667 333,186.5C 332.333,189.167 331.667,189.167 331,186.5C 330.333,189.167 329.667,189.167 329,186.5C 328.333,189.167 327.667,189.167 327,186.5C 324.619,187.435 322.119,187.768 319.5,187.5C 319.5,188.833 319.5,190.167 319.5,191.5C 297.39,194.439 283.556,206.772 278,228.5C 277.5,234.825 277.334,241.158 277.5,247.5C 314.835,247.333 352.168,247.5 389.5,248C 400,252.492 402.834,259.992 398,270.5C 394.995,274.087 391.162,276.254 386.5,277C 364.503,277.5 342.503,277.667 320.5,277.5C 320.667,288.172 320.5,298.839 320,309.5C 316.808,318.849 310.308,322.682 300.5,321C 294.718,318.792 291.718,314.625 291.5,308.5C 291.5,297.833 291.5,287.167 291.5,276.5C 286.637,276.181 281.97,276.514 277.5,277.5C 277.5,325.5 277.5,373.5 277.5,421.5C 288.5,421.5 299.5,421.5 310.5,421.5C 311.014,423.512 311.18,425.512 311,427.5C 310.692,426.692 310.192,426.025 309.5,425.5C 308.566,430.173 307.066,430.506 305,426.5C 304.691,427.766 304.191,428.933 303.5,430C 307.631,431.417 311.631,431.584 315.5,430.5C 317.836,432.073 317.836,433.406 315.5,434.5C 315.833,435.167 316.167,435.833 316.5,436.5C 317.603,436.998 318.603,437.331 319.5,437.5C 318.754,438.736 318.421,440.07 318.5,441.5C 311.963,442.967 305.296,443.8 298.5,444C 280.5,444.667 262.5,444.667 244.5,444C 237.786,440.56 235.286,435.06 237,427.5C 238.305,424.362 240.471,422.029 243.5,420.5C 244.333,357.503 244.833,294.503 245,231.5C 247.999,207.36 259.165,188.027 278.5,173.5C 279.333,153.842 279.833,134.175 280,114.5C 284.007,104.244 291.507,99.7442 302.5,101C 305.833,102.667 309.167,104.333 312.5,106C 334.682,123.357 356.682,140.857 378.5,158.5 Z"/></g>
<g><path style="opacity:1" fill="#f2f8f9" d="M 312.5,147.5 C 317.47,151.325 322.47,155.158 327.5,159C 322.511,159.499 317.511,159.666 312.5,159.5C 312.5,155.5 312.5,151.5 312.5,147.5 Z"/></g>
<g><path style="opacity:1" fill="#e6f0f4" d="M 670.5,136.5 C 661.398,143.759 652.398,151.259 643.5,159C 554.999,159.832 466.666,159.666 378.5,158.5C 466.541,158.495 554.374,158.495 642,158.5C 645.789,155.556 649.456,151.889 653,147.5C 653.333,147.833 653.667,148.167 654,148.5C 655.996,145.673 658.162,143.007 660.5,140.5C 661.736,139.754 663.07,139.421 664.5,139.5C 664.351,138.448 664.517,137.448 665,136.5C 666.312,135.215 668.145,135.215 670.5,136.5 Z"/></g>
<g><path style="opacity:1" fill="#042627" d="M 662.5,185.5 C 660.996,187.836 658.996,189.669 656.5,191C 544.167,191.5 431.834,191.667 319.5,191.5C 319.5,190.167 319.5,188.833 319.5,187.5C 322.119,187.768 324.619,187.435 327,186.5C 327.667,189.167 328.333,189.167 329,186.5C 329.667,189.167 330.333,189.167 331,186.5C 331.667,189.167 332.333,189.167 333,186.5C 333.5,187.667 334.333,188.5 335.5,189C 352.874,190.671 370.207,190.504 387.5,188.5C 429.546,188.326 468.38,188.326 504,188.5C 504.333,187.833 504.667,187.167 505,186.5C 505.667,189.167 506.333,189.167 507,186.5C 507.667,189.167 508.333,189.167 509,186.5C 513.246,187.799 517.746,188.466 522.5,188.5C 528.573,188.033 534.573,188.033 540.5,188.5C 542.717,186.621 545.217,186.621 548,188.5C 548.333,187.833 548.667,187.167 549,186.5C 550.333,189.167 551.667,189.167 553,186.5C 553.667,189.167 554.333,189.167 555,186.5C 555.667,189.167 556.333,189.167 557,186.5C 562.254,187.807 567.754,188.474 573.5,188.5C 579.814,188.105 585.981,188.105 592,188.5C 592.333,187.833 592.667,187.167 593,186.5C 593.667,189.167 594.333,189.167 595,186.5C 595.667,189.167 596.333,189.167 597,186.5C 597.667,189.167 598.333,189.167 599,186.5C 599.667,189.167 600.333,189.167 601,186.5C 601.667,189.167 602.333,189.167 603,186.5C 603.667,189.167 604.333,189.167 605,186.5C 613.394,188.421 622.061,189.421 631,189.5C 636.45,189.402 641.784,188.735 647,187.5C 650.455,188.791 653.955,188.791 657.5,187.5C 657.291,186.914 656.957,186.414 656.5,186C 658.473,185.505 660.473,185.338 662.5,185.5 Z"/></g>
<g><path style="opacity:1" fill="#062327" d="M 637.5,205.5 C 653.159,206.158 658.325,213.825 653,228.5C 646.428,235.182 639.262,236.015 631.5,231C 626.228,223.638 626.228,216.304 631.5,209C 633.727,208.059 635.727,206.892 637.5,205.5 Z"/></g>
<g><path style="opacity:1" fill="#06242a" d="M 585.5,205.5 C 601.135,206.101 606.301,213.768 601,228.5C 594.966,234.694 588.132,235.861 580.5,232C 575.798,227.078 574.298,221.245 576,214.5C 578.406,210.592 581.572,207.592 585.5,205.5 Z"/></g>
<g><path style="opacity:1" fill="#052327" d="M 689.5,205.5 C 705.164,206.172 710.331,213.839 705,228.5C 695.261,237.392 686.928,236.392 680,225.5C 677.576,216.02 680.742,209.353 689.5,205.5 Z"/></g>
<g><path style="opacity:1" fill="#062227" d="M 533.5,205.5 C 549.159,206.158 554.325,213.825 549,228.5C 539.306,237.269 530.973,236.269 524,225.5C 521.614,215.945 524.781,209.278 533.5,205.5 Z"/></g>
<g><path style="opacity:1" fill="#2e4c4f" d="M 830.5,229.5 C 836.31,228.51 842.31,228.177 848.5,228.5C 851.388,228.995 853.721,230.495 855.5,233C 853.34,236.084 852.006,236.25 851.5,233.5C 850.522,233.977 849.689,234.643 849,235.5C 848.577,234.044 847.744,233.544 846.5,234C 847.67,235.755 849.337,236.755 851.5,237C 850.5,237.333 849.5,237.667 848.5,238C 848.833,238.333 849.167,238.667 849.5,239C 848.619,239.708 847.953,240.542 847.5,241.5C 841.699,241.39 835.699,241.723 829.5,242.5C 828.359,239.807 829.192,239.14 832,240.5C 832.684,239.216 832.517,238.049 831.5,237C 831.833,236.833 832.167,236.667 832.5,236.5C 833.251,237.376 833.751,238.376 834,239.5C 835.487,238.747 835.654,237.914 834.5,237C 835.448,236.517 836.448,236.351 837.5,236.5C 837.649,235.448 837.483,234.448 837,233.5C 835.582,235.363 833.749,235.863 831.5,235C 832.572,233.716 833.905,233.383 835.5,234C 834.54,232.581 833.707,231.081 833,229.5C 832.23,230.598 831.397,230.598 830.5,229.5 Z"/></g>
<g><path style="opacity:1" fill="#213c42" d="M 159.5,228.5 C 168.167,228.5 176.833,228.5 185.5,228.5C 185.414,229.496 185.748,230.329 186.5,231C 185.24,232.113 184.073,232.28 183,231.5C 182.374,233.991 181.541,233.991 180.5,231.5C 179.108,232.605 177.941,233.939 177,235.5C 176.383,234.551 176.549,233.718 177.5,233C 175.693,230.724 174.193,230.557 173,232.5C 171.984,231.366 171.317,231.699 171,233.5C 170.667,233.167 170.333,232.833 170,232.5C 168.8,234.412 167.133,235.745 165,236.5C 164.667,235.833 164.333,235.167 164,234.5C 162.887,235.305 161.721,235.972 160.5,236.5C 160.511,234.983 161.177,233.816 162.5,233C 162,232.5 161.5,232 161,231.5C 160.581,232.672 159.915,233.672 159,234.5C 158.82,232.512 158.986,230.512 159.5,228.5 Z"/></g>
<g><path style="opacity:1" fill="#587c7f" d="M 848.5,228.5 C 852.348,228.689 856.015,228.689 859.5,228.5C 860.541,230.991 861.374,230.991 862,228.5C 862.483,229.448 862.649,230.448 862.5,231.5C 861.442,232.6 860.608,233.934 860,235.5C 859.346,234.304 858.846,234.304 858.5,235.5C 859.456,237.075 860.123,238.742 860.5,240.5C 859.778,240.918 859.278,241.584 859,242.5C 858.333,239.833 857.667,239.833 857,242.5C 856.667,241.833 856.333,241.167 856,240.5C 855.161,241.624 853.994,242.291 852.5,242.5C 850.793,242.272 849.126,241.938 847.5,241.5C 847.953,240.542 848.619,239.708 849.5,239C 849.167,238.667 848.833,238.333 848.5,238C 849.5,237.667 850.5,237.333 851.5,237C 849.337,236.755 847.67,235.755 846.5,234C 847.744,233.544 848.577,234.044 849,235.5C 849.689,234.643 850.522,233.977 851.5,233.5C 852.006,236.25 853.34,236.084 855.5,233C 853.721,230.495 851.388,228.995 848.5,228.5 Z"/></g>
<g><path style="opacity:1" fill="#718e90" d="M 830.5,229.5 C 831.397,230.598 832.23,230.598 833,229.5C 833.707,231.081 834.54,232.581 835.5,234C 833.905,233.383 832.572,233.716 831.5,235C 833.749,235.863 835.582,235.363 837,233.5C 837.483,234.448 837.649,235.448 837.5,236.5C 836.448,236.351 835.448,236.517 834.5,237C 835.654,237.914 835.487,238.747 834,239.5C 833.751,238.376 833.251,237.376 832.5,236.5C 832.167,236.667 831.833,236.833 831.5,237C 832.517,238.049 832.684,239.216 832,240.5C 829.192,239.14 828.359,239.807 829.5,242.5C 826.75,242.382 824.75,241.049 823.5,238.5C 823.977,237.522 824.643,236.689 825.5,236C 822.188,232.606 823.188,230.106 828.5,228.5C 829.183,228.863 829.85,229.196 830.5,229.5 Z"/></g>
<g><path style="opacity:1" fill="#719096" d="M 159.5,228.5 C 158.986,230.512 158.82,232.512 159,234.5C 159.915,233.672 160.581,232.672 161,231.5C 161.5,232 162,232.5 162.5,233C 161.177,233.816 160.511,234.983 160.5,236.5C 159.352,235.105 158.352,235.272 157.5,237C 158.167,237.333 158.833,237.667 159.5,238C 157.915,238.085 156.582,238.251 155.5,238.5C 156.77,239.288 157.77,240.288 158.5,241.5C 157.687,242.653 156.687,242.653 155.5,241.5C 154.667,240.5 153.833,239.5 153,238.5C 152.544,237.256 153.044,236.423 154.5,236C 151.833,235 151.833,234 154.5,233C 152.335,232.008 152.501,230.842 155,229.5C 156.44,228.852 157.94,228.519 159.5,228.5 Z"/></g>
<g><path style="opacity:1" fill="#9cbabe" d="M 860.5,240.5 C 860.123,238.742 859.456,237.075 858.5,235.5C 858.846,234.304 859.346,234.304 860,235.5C 860.608,233.934 861.442,232.6 862.5,231.5C 864.79,229.967 865.456,230.3 864.5,232.5C 866.65,235.869 866.484,238.869 864,241.5C 863.667,241.167 863.333,240.833 863,240.5C 861.929,243.113 861.095,243.113 860.5,240.5 Z"/></g>
<g><path style="opacity:1" fill="#3a5c62" d="M 185.5,228.5 C 187.877,228.784 190.044,228.784 192,228.5C 192.483,229.448 192.649,230.448 192.5,231.5C 190.799,231.966 189.299,231.966 188,231.5C 186.668,232.162 185.502,233.328 184.5,235C 187.167,235.667 187.167,236.333 184.5,237C 186.521,237.401 187.855,238.568 188.5,240.5C 188.154,241.696 187.654,241.696 187,240.5C 186.536,241.094 186.369,241.761 186.5,242.5C 185.527,241.209 184.527,241.209 183.5,242.5C 182.808,241.975 182.308,241.308 182,240.5C 180.991,241.658 179.658,242.325 178,242.5C 171.287,242.792 164.787,242.459 158.5,241.5C 157.77,240.288 156.77,239.288 155.5,238.5C 156.582,238.251 157.915,238.085 159.5,238C 158.833,237.667 158.167,237.333 157.5,237C 158.352,235.272 159.352,235.105 160.5,236.5C 161.721,235.972 162.887,235.305 164,234.5C 164.333,235.167 164.667,235.833 165,236.5C 167.133,235.745 168.8,234.412 170,232.5C 170.333,232.833 170.667,233.167 171,233.5C 171.317,231.699 171.984,231.366 173,232.5C 174.193,230.557 175.693,230.724 177.5,233C 176.549,233.718 176.383,234.551 177,235.5C 177.941,233.939 179.108,232.605 180.5,231.5C 181.541,233.991 182.374,233.991 183,231.5C 184.073,232.28 185.24,232.113 186.5,231C 185.748,230.329 185.414,229.496 185.5,228.5 Z"/></g>
<g><path style="opacity:1" fill="#75989d" d="M 186.5,242.5 C 186.369,241.761 186.536,241.094 187,240.5C 187.654,241.696 188.154,241.696 188.5,240.5C 187.855,238.568 186.521,237.401 184.5,237C 187.167,236.333 187.167,235.667 184.5,235C 185.502,233.328 186.668,232.162 188,231.5C 189.299,231.966 190.799,231.966 192.5,231.5C 193.423,230.697 194.423,230.53 195.5,231C 194.672,231.915 193.672,232.581 192.5,233C 193.471,234.204 194.471,234.704 195.5,234.5C 194.137,236.674 193.803,238.841 194.5,241C 193.551,241.617 192.718,241.451 192,240.5C 191.333,243.167 190.667,243.167 190,240.5C 189.29,241.973 188.124,242.64 186.5,242.5 Z"/></g>
<g><path style="opacity:1" fill="#d7e5e7" d="M 431.5,247.5 C 507.36,246.174 583.36,246.174 659.5,247.5C 659.5,248.5 659.5,249.5 659.5,250.5C 657.641,249.406 655.641,248.573 653.5,248C 579.501,247.5 505.501,247.333 431.5,247.5 Z"/></g>
<g><path style="opacity:1" fill="#042023" d="M 431.5,247.5 C 505.501,247.333 579.501,247.5 653.5,248C 655.641,248.573 657.641,249.406 659.5,250.5C 665.902,256.128 667.069,262.794 663,270.5C 661.143,273.2 658.643,274.866 655.5,275.5C 656.392,272.518 657.725,269.684 659.5,267C 658.643,266.311 657.977,265.478 657.5,264.5C 658.417,261.242 658.751,257.909 658.5,254.5C 657.448,254.649 656.448,254.483 655.5,254C 654.167,253.333 654.167,252.667 655.5,252C 654.584,251.626 653.75,251.126 653,250.5C 578.349,250.462 503.516,250.962 428.5,252C 426.285,252.17 424.285,252.837 422.5,254C 422.91,256.548 423.243,259.382 423.5,262.5C 423.48,265.383 422.48,267.716 420.5,269.5C 416.167,258.165 419.834,250.832 431.5,247.5 Z"/></g>
<g><path style="opacity:1" fill="#012128" d="M 694.5,247.5 C 703.25,247.09 711.916,247.59 720.5,249C 724.817,251.315 727.65,254.815 729,259.5C 729.667,304.833 729.667,350.167 729,395.5C 725.61,404.521 719.11,408.021 709.5,406C 705.333,404.5 702.5,401.667 701,397.5C 700.5,357.501 700.333,317.501 700.5,277.5C 686.062,275.894 681.229,268.228 686,254.5C 688.18,251.333 691.014,248.999 694.5,247.5 Z"/></g>
<g><path style="opacity:1" fill="#03242a" d="M 655.5,275.5 C 654.737,276.268 653.737,276.768 652.5,277C 578.167,277.667 503.833,277.667 429.5,277C 425.361,275.68 422.361,273.18 420.5,269.5C 422.48,267.716 423.48,265.383 423.5,262.5C 423.243,259.382 422.91,256.548 422.5,254C 424.285,252.837 426.285,252.17 428.5,252C 503.516,250.962 578.349,250.462 653,250.5C 653.75,251.126 654.584,251.626 655.5,252C 654.167,252.667 654.167,253.333 655.5,254C 656.448,254.483 657.448,254.649 658.5,254.5C 658.751,257.909 658.417,261.242 657.5,264.5C 657.977,265.478 658.643,266.311 659.5,267C 657.725,269.684 656.392,272.518 655.5,275.5 Z"/></g>
<g><path style="opacity:1" fill="#133238" d="M 803.5,264.5 C 813.55,264.169 823.55,264.669 833.5,266C 832.692,266.308 832.025,266.808 831.5,267.5C 832.167,267.833 832.833,268.167 833.5,268.5C 832.211,271.151 832.711,273.484 835,275.5C 835.984,273.205 836.817,273.539 837.5,276.5C 838.908,277.243 840.241,278.077 841.5,279C 839.925,278.621 838.425,278.788 837,279.5C 835.822,276.036 834.655,276.369 833.5,280.5C 822.495,280.667 811.495,280.5 800.5,280C 795.167,275 795.167,270 800.5,265C 801.448,264.517 802.448,264.351 803.5,264.5 Z"/></g>
<g><path style="opacity:1" fill="#113137" d="M 216.5,264.5 C 216.657,265.873 216.49,267.207 216,268.5C 215.549,266.071 214.715,265.904 213.5,268C 215.973,269.402 215.973,270.902 213.5,272.5C 213.846,273.696 214.346,273.696 215,272.5C 215.667,273.167 215.667,273.833 215,274.5C 213.235,275.239 211.235,275.239 209,274.5C 208.217,276.319 208.717,277.652 210.5,278.5C 210.833,277.833 211.167,277.167 211.5,276.5C 212.333,277.5 213.167,278.5 214,279.5C 214.333,278.833 214.667,278.167 215,277.5C 215.698,278.691 216.531,279.691 217.5,280.5C 203.5,280.5 189.5,280.5 175.5,280.5C 175.423,279.25 174.756,278.417 173.5,278C 174.956,277.577 175.456,276.744 175,275.5C 172.979,276.236 171.479,275.403 170.5,273C 174.65,271.979 175.65,269.979 173.5,267C 174.509,266.645 175.176,265.812 175.5,264.5C 189.026,263.966 202.692,263.966 216.5,264.5 Z"/></g>
<g><path style="opacity:1" fill="#38585c" d="M 803.5,264.5 C 812.977,263.592 822.477,263.259 832,263.5C 833.326,263.755 834.326,264.422 835,265.5C 837.274,264.189 839.44,264.189 841.5,265.5C 840.199,266.884 840.199,268.384 841.5,270C 839.405,270.556 839.238,271.056 841,271.5C 842.152,269.488 843.318,269.322 844.5,271C 843.289,272.844 841.956,273.678 840.5,273.5C 841.246,274.736 841.579,276.07 841.5,277.5C 842.552,277.351 843.552,277.517 844.5,278C 843.748,278.671 843.414,279.504 843.5,280.5C 840.167,280.5 836.833,280.5 833.5,280.5C 834.655,276.369 835.822,276.036 837,279.5C 838.425,278.788 839.925,278.621 841.5,279C 840.241,278.077 838.908,277.243 837.5,276.5C 836.817,273.539 835.984,273.205 835,275.5C 832.711,273.484 832.211,271.151 833.5,268.5C 832.833,268.167 832.167,267.833 831.5,267.5C 832.025,266.808 832.692,266.308 833.5,266C 823.55,264.669 813.55,264.169 803.5,264.5 Z"/></g>
<g><path style="opacity:1" fill="#709096" d="M 843.5,280.5 C 843.414,279.504 843.748,278.671 844.5,278C 843.552,277.517 842.552,277.351 841.5,277.5C 841.579,276.07 841.246,274.736 840.5,273.5C 841.956,273.678 843.289,272.844 844.5,271C 843.318,269.322 842.152,269.488 841,271.5C 839.238,271.056 839.405,270.556 841.5,270C 840.199,268.384 840.199,266.884 841.5,265.5C 841.435,265.938 841.601,266.272 842,266.5C 844.586,263.875 847.086,264.042 849.5,267C 848.167,268.84 848.334,269.34 850,268.5C 851.852,270.23 851.686,271.396 849.5,272C 851.621,277.119 849.621,279.952 843.5,280.5 Z"/></g>
<g><path style="opacity:1" fill="#517076" d="M 175.5,264.5 C 175.176,265.812 174.509,266.645 173.5,267C 175.65,269.979 174.65,271.979 170.5,273C 171.479,275.403 172.979,276.236 175,275.5C 175.456,276.744 174.956,277.577 173.5,278C 174.756,278.417 175.423,279.25 175.5,280.5C 168.79,278.629 167.457,275.129 171.5,270C 169.193,268.172 169.526,266.506 172.5,265C 173.448,264.517 174.448,264.351 175.5,264.5 Z"/></g>
<g><path style="opacity:1" fill="#325558" d="M 216.5,264.5 C 221.576,264.608 223.909,267.274 223.5,272.5C 223.403,276.597 221.403,279.263 217.5,280.5C 216.531,279.691 215.698,278.691 215,277.5C 214.667,278.167 214.333,278.833 214,279.5C 213.167,278.5 212.333,277.5 211.5,276.5C 211.167,277.167 210.833,277.833 210.5,278.5C 208.717,277.652 208.217,276.319 209,274.5C 211.235,275.239 213.235,275.239 215,274.5C 215.667,273.833 215.667,273.167 215,272.5C 214.346,273.696 213.846,273.696 213.5,272.5C 215.973,270.902 215.973,269.402 213.5,268C 214.715,265.904 215.549,266.071 216,268.5C 216.49,267.207 216.657,265.873 216.5,264.5 Z"/></g>
<g><path style="opacity:1" fill="#a6b4b8" d="M 277.5,277.5 C 281.97,276.514 286.637,276.181 291.5,276.5C 291.5,287.167 291.5,297.833 291.5,308.5C 290.506,298.347 290.172,288.014 290.5,277.5C 286.167,277.5 281.833,277.5 277.5,277.5 Z"/></g>
<g><path style="opacity:1" fill="#96aaae" d="M 834.5,301.5 C 839.167,300.167 843.833,300.167 848.5,301.5C 844.003,300.945 839.836,301.611 836,303.5C 835.722,302.584 835.222,301.918 834.5,301.5 Z"/></g>
<g><path style="opacity:1" fill="#375259" d="M 801.5,300.5 C 801.389,302.648 802.056,302.981 803.5,301.5C 804.251,302.376 804.751,303.376 805,304.5C 805.333,304.167 805.667,303.833 806,303.5C 806.417,304.756 807.25,305.423 808.5,305.5C 808.5,305.833 808.5,306.167 808.5,306.5C 805.044,307.303 801.711,308.303 798.5,309.5C 798.579,310.93 798.246,312.264 797.5,313.5C 799.35,315.409 801.35,316.076 803.5,315.5C 803.5,316.5 803.5,317.5 803.5,318.5C 795.84,320.01 791.173,317.01 789.5,309.5C 790.865,302.521 794.865,299.521 801.5,300.5 Z"/></g>
<g><path style="opacity:1" fill="#213e46" d="M 164.5,301.5 C 171.508,301.334 178.508,301.5 185.5,302C 184.915,303.302 184.249,304.469 183.5,305.5C 182.52,301.674 181.687,301.674 181,305.5C 180.444,303.405 179.944,303.238 179.5,305C 180.33,306.465 180.496,307.965 180,309.5C 179.138,307.913 178.471,306.246 178,304.5C 177.535,305.931 176.701,307.097 175.5,308C 176.622,309.613 176.122,310.78 174,311.5C 173.043,309.291 171.876,309.457 170.5,312C 171.931,312.465 173.097,313.299 174,314.5C 174.419,313.328 175.085,312.328 176,311.5C 176.167,311.833 176.333,312.167 176.5,312.5C 175.359,313.425 175.359,314.259 176.5,315C 175.016,315.662 173.683,316.496 172.5,317.5C 166.905,318.683 161.572,318.683 156.5,317.5C 156.554,314.953 156.888,312.453 157.5,310C 154.833,309.333 154.833,308.667 157.5,308C 155.043,306.488 155.043,305.154 157.5,304C 156.402,303.23 156.402,302.397 157.5,301.5C 159.969,300.933 162.302,300.933 164.5,301.5 Z"/></g>
<g><path style="opacity:1" fill="#1a383e" d="M 834.5,301.5 C 835.222,301.918 835.722,302.584 836,303.5C 839.836,301.611 844.003,300.945 848.5,301.5C 851.5,301.5 854.5,301.5 857.5,301.5C 856.012,302.831 855.345,304.164 855.5,305.5C 853.484,301.624 852.651,301.624 853,305.5C 851.984,304.366 851.317,304.699 851,306.5C 850.667,305.833 850.333,305.167 850,304.5C 849.535,305.931 848.701,307.097 847.5,308C 848.449,308.617 849.282,308.451 850,307.5C 850.456,308.744 849.956,309.577 848.5,310C 849.056,310.383 849.389,310.883 849.5,311.5C 848.778,311.918 848.278,312.584 848,313.5C 847.167,312.5 846.333,311.5 845.5,310.5C 844.803,312.385 843.803,312.718 842.5,311.5C 840.434,314.298 838.934,313.965 838,310.5C 837,310.833 836,311.167 835,311.5C 834.508,310.451 834.674,309.451 835.5,308.5C 834.726,307.289 833.893,307.289 833,308.5C 832.313,304.674 831.48,304.674 830.5,308.5C 829.761,308.631 829.094,308.464 828.5,308C 828.69,306.172 829.023,304.338 829.5,302.5C 830.919,301.549 832.585,301.216 834.5,301.5 Z"/></g>
<g><path style="opacity:1" fill="#8aa2a9" d="M 801.5,300.5 C 804.226,300.264 806.559,301.097 808.5,303C 809.774,303.977 809.774,304.811 808.5,305.5C 807.25,305.423 806.417,304.756 806,303.5C 805.667,303.833 805.333,304.167 805,304.5C 804.751,303.376 804.251,302.376 803.5,301.5C 802.056,302.981 801.389,302.648 801.5,300.5 Z"/></g>
<g><path style="opacity:1" fill="#779195" d="M 214.5,302.5 C 213.912,304.205 213.579,305.872 213.5,307.5C 213.879,309.213 214.879,310.213 216.5,310.5C 216.938,310.435 217.272,310.601 217.5,311C 216.531,312.758 215.364,313.258 214,312.5C 214.109,313.769 213.942,314.769 213.5,315.5C 210.887,314.608 210.221,312.941 211.5,310.5C 210.833,309.833 210.167,309.167 209.5,308.5C 209.846,307.304 210.346,307.304 211,308.5C 211.617,307.551 211.451,306.718 210.5,306C 211.736,304.612 213.069,303.446 214.5,302.5 Z"/></g>
<g><path style="opacity:1" fill="#3d5d63" d="M 217.5,301.5 C 223.942,298.887 228.275,300.887 230.5,307.5C 229.046,308.52 228.713,309.687 229.5,311C 227.699,311.317 227.366,311.984 228.5,313C 227.756,314.039 226.756,314.539 225.5,314.5C 223.801,314.66 222.134,314.494 220.5,314C 220.727,312.865 221.06,311.698 221.5,310.5C 223.115,309.846 224.782,309.346 226.5,309C 223.292,308.597 220.292,307.597 217.5,306C 216.304,305.346 216.304,304.846 217.5,304.5C 219.373,303.911 221.04,304.578 222.5,306.5C 222.833,306.167 223.167,305.833 223.5,305.5C 222.478,304.646 221.645,303.646 221,302.5C 220.586,302.957 220.086,303.291 219.5,303.5C 218.818,302.757 218.151,302.091 217.5,301.5 Z"/></g>
<g><path style="opacity:1" fill="#072728" d="M 340.5,299.5 C 349.693,299.215 353.193,303.548 351,312.5C 345.619,319.152 340.285,319.152 335,312.5C 333.102,306.387 334.935,302.053 340.5,299.5 Z"/></g>
<g><path style="opacity:1" fill="#95aeb3" d="M 863.5,305.5 C 864.429,306.315 865.429,307.148 866.5,308C 865.364,309.53 864.364,310.863 863.5,312C 864.167,312.667 864.833,313.333 865.5,314C 863.957,315.878 862.124,317.378 860,318.5C 859.601,318.272 859.435,317.938 859.5,317.5C 860.343,315.827 861.676,314.66 863.5,314C 862.251,312.176 861.085,312.343 860,314.5C 859.259,313.359 858.425,313.359 857.5,314.5C 856.167,313.833 856.167,313.167 857.5,312.5C 858.989,312.467 860.322,311.967 861.5,311C 859.741,310.02 858.074,309.353 856.5,309C 857.833,308.333 859.167,307.667 860.5,307C 858.993,306.163 858.493,304.996 859,303.5C 860.33,304.582 861.83,305.249 863.5,305.5 Z"/></g>
<g><path style="opacity:1" fill="#3c5f65" d="M 183.5,305.5 C 183.877,307.258 184.544,308.925 185.5,310.5C 184.312,310.307 182.978,310.807 181.5,312C 182.833,313 184.167,314 185.5,315C 183.699,315.317 183.366,315.984 184.5,317C 183.552,317.483 182.552,317.649 181.5,317.5C 178.167,318.508 175.167,318.508 172.5,317.5C 173.683,316.496 175.016,315.662 176.5,315C 175.359,314.259 175.359,313.425 176.5,312.5C 176.333,312.167 176.167,311.833 176,311.5C 175.085,312.328 174.419,313.328 174,314.5C 173.097,313.299 171.931,312.465 170.5,312C 171.876,309.457 173.043,309.291 174,311.5C 176.122,310.78 176.622,309.613 175.5,308C 176.701,307.097 177.535,305.931 178,304.5C 178.471,306.246 179.138,307.913 180,309.5C 180.496,307.965 180.33,306.465 179.5,305C 179.944,303.238 180.444,303.405 181,305.5C 181.687,301.674 182.52,301.674 183.5,305.5 Z"/></g>
<g><path style="opacity:1" fill="#1d3b41" d="M 217.5,301.5 C 218.151,302.091 218.818,302.757 219.5,303.5C 220.086,303.291 220.586,302.957 221,302.5C 221.645,303.646 222.478,304.646 223.5,305.5C 223.167,305.833 222.833,306.167 222.5,306.5C 221.04,304.578 219.373,303.911 217.5,304.5C 216.304,304.846 216.304,305.346 217.5,306C 220.292,307.597 223.292,308.597 226.5,309C 224.782,309.346 223.115,309.846 221.5,310.5C 221.06,311.698 220.727,312.865 220.5,314C 222.134,314.494 223.801,314.66 225.5,314.5C 225.5,315.5 225.5,316.5 225.5,317.5C 225.167,317.5 224.833,317.5 224.5,317.5C 224.631,316.761 224.464,316.094 224,315.5C 222.274,316.576 220.441,316.743 218.5,316C 219.244,313.149 219.244,310.483 218.5,308C 216.939,307.812 216.272,308.645 216.5,310.5C 214.879,310.213 213.879,309.213 213.5,307.5C 213.579,305.872 213.912,304.205 214.5,302.5C 215.209,301.596 216.209,301.263 217.5,301.5 Z"/></g>
<g><path style="opacity:1" fill="#55797e" d="M 857.5,301.5 C 859.124,301.36 860.29,302.027 861,303.5C 861.333,302.833 861.667,302.167 862,301.5C 862.791,302.745 863.291,304.078 863.5,305.5C 861.83,305.249 860.33,304.582 859,303.5C 858.493,304.996 858.993,306.163 860.5,307C 859.167,307.667 857.833,308.333 856.5,309C 858.074,309.353 859.741,310.02 861.5,311C 860.322,311.967 858.989,312.467 857.5,312.5C 856.167,313.167 856.167,313.833 857.5,314.5C 858.425,313.359 859.259,313.359 860,314.5C 861.085,312.343 862.251,312.176 863.5,314C 861.676,314.66 860.343,315.827 859.5,317.5C 859.167,317.5 858.833,317.5 858.5,317.5C 857.833,317.167 857.167,316.833 856.5,316.5C 853.961,315.069 851.628,313.403 849.5,311.5C 849.389,310.883 849.056,310.383 848.5,310C 849.956,309.577 850.456,308.744 850,307.5C 849.282,308.451 848.449,308.617 847.5,308C 848.701,307.097 849.535,305.931 850,304.5C 850.333,305.167 850.667,305.833 851,306.5C 851.317,304.699 851.984,304.366 853,305.5C 852.651,301.624 853.484,301.624 855.5,305.5C 855.345,304.164 856.012,302.831 857.5,301.5 Z"/></g>
<g><path style="opacity:1" fill="#486d72" d="M 157.5,301.5 C 156.402,302.397 156.402,303.23 157.5,304C 155.043,305.154 155.043,306.488 157.5,308C 154.833,308.667 154.833,309.333 157.5,310C 156.888,312.453 156.554,314.953 156.5,317.5C 154.871,316.375 153.371,315.041 152,313.5C 152.128,311.555 151.962,309.722 151.5,308C 152.167,307.667 152.833,307.333 153.5,307C 152.132,303.504 153.466,301.67 157.5,301.5 Z"/></g>
<g><path style="opacity:1" fill="#7d9c9f" d="M 164.5,301.5 C 168.653,300.834 172.987,300.501 177.5,300.5C 182.609,300.386 187.609,300.886 192.5,302C 192.152,304.055 192.819,306.055 194.5,308C 194.5,310 194.5,312 194.5,314C 190.712,317.651 186.379,318.818 181.5,317.5C 182.552,317.649 183.552,317.483 184.5,317C 183.366,315.984 183.699,315.317 185.5,315C 184.167,314 182.833,313 181.5,312C 182.978,310.807 184.312,310.307 185.5,310.5C 184.544,308.925 183.877,307.258 183.5,305.5C 184.249,304.469 184.915,303.302 185.5,302C 178.508,301.5 171.508,301.334 164.5,301.5 Z"/></g>
<g><path style="opacity:1" fill="#5b7a81" d="M 829.5,302.5 C 829.023,304.338 828.69,306.172 828.5,308C 829.094,308.464 829.761,308.631 830.5,308.5C 831.472,310.92 830.805,312.92 828.5,314.5C 827.599,313.71 826.932,312.71 826.5,311.5C 825.722,310.844 825.056,310.011 824.5,309C 825.689,307.417 826.522,305.584 827,303.5C 827.671,302.748 828.504,302.414 829.5,302.5 Z"/></g>
<g><path style="opacity:1" fill="#84a4a6" d="M 230.5,307.5 C 231.536,312.008 229.869,315.341 225.5,317.5C 225.5,316.5 225.5,315.5 225.5,314.5C 226.756,314.539 227.756,314.039 228.5,313C 227.366,311.984 227.699,311.317 229.5,311C 228.713,309.687 229.046,308.52 230.5,307.5 Z"/></g>
<g><path style="opacity:1" fill="#567a83" d="M 808.5,306.5 C 809.239,306.369 809.906,306.536 810.5,307C 809.253,309.669 807.253,311.502 804.5,312.5C 805.397,312.669 806.397,313.002 807.5,313.5C 807.023,314.931 806.357,316.264 805.5,317.5C 804.818,316.757 804.151,316.091 803.5,315.5C 801.35,316.076 799.35,315.409 797.5,313.5C 798.246,312.264 798.579,310.93 798.5,309.5C 801.711,308.303 805.044,307.303 808.5,306.5 Z"/></g>
<g><path style="opacity:1" fill="#2b4e53" d="M 849.5,311.5 C 851.628,313.403 853.961,315.069 856.5,316.5C 850.322,317.467 843.989,317.801 837.5,317.5C 834.421,316.148 831.421,315.148 828.5,314.5C 830.805,312.92 831.472,310.92 830.5,308.5C 831.48,304.674 832.313,304.674 833,308.5C 833.893,307.289 834.726,307.289 835.5,308.5C 834.674,309.451 834.508,310.451 835,311.5C 836,311.167 837,310.833 838,310.5C 838.934,313.965 840.434,314.298 842.5,311.5C 843.803,312.718 844.803,312.385 845.5,310.5C 846.333,311.5 847.167,312.5 848,313.5C 848.278,312.584 848.778,311.918 849.5,311.5 Z"/></g>
<g><path style="opacity:1" fill="#466267" d="M 224.5,317.5 C 222.332,318.037 219.999,318.37 217.5,318.5C 215.517,318.185 214.184,317.185 213.5,315.5C 213.942,314.769 214.109,313.769 214,312.5C 215.364,313.258 216.531,312.758 217.5,311C 217.272,310.601 216.938,310.435 216.5,310.5C 216.272,308.645 216.939,307.812 218.5,308C 219.244,310.483 219.244,313.149 218.5,316C 220.441,316.743 222.274,316.576 224,315.5C 224.464,316.094 224.631,316.761 224.5,317.5 Z"/></g>
<g><path style="opacity:1" fill="#8da9ab" d="M 826.5,311.5 C 826.932,312.71 827.599,313.71 828.5,314.5C 831.421,315.148 834.421,316.148 837.5,317.5C 843.989,317.801 850.322,317.467 856.5,316.5C 857.167,316.833 857.833,317.167 858.5,317.5C 850.01,318.657 841.343,318.824 832.5,318C 829.966,317.484 827.8,316.317 826,314.5C 825.26,313.251 825.427,312.251 826.5,311.5 Z"/></g>
<g><path style="opacity:1" fill="#052428" d="M 338.5,337.5 C 348.831,336.043 353.664,340.376 353,350.5C 350.173,357.045 345.339,359.212 338.5,357C 332.975,354.081 331.142,349.581 333,343.5C 334.36,340.977 336.193,338.977 338.5,337.5 Z"/></g>
<g><path style="opacity:1" fill="#1c3b40" d="M 801.5,341.5 C 803.167,341.5 804.833,341.5 806.5,341.5C 805.737,342.268 804.737,342.768 803.5,343C 804.849,343.772 805.682,344.939 806,346.5C 806.249,345.376 806.749,344.376 807.5,343.5C 808.304,345.764 807.637,347.764 805.5,349.5C 806.5,350.333 807.5,351.167 808.5,352C 807.833,352.333 807.167,352.667 806.5,353C 806.983,356.462 808.15,356.962 810,354.5C 812.064,355.591 814.231,355.758 816.5,355C 816.167,354.667 815.833,354.333 815.5,354C 816.227,352.601 816.727,351.101 817,349.5C 818.185,351.377 819.185,353.377 820,355.5C 821.461,354.117 822.294,354.451 822.5,356.5C 822.5,356.833 822.5,357.167 822.5,357.5C 815.053,357.929 807.719,357.429 800.5,356C 796.387,352.491 795.554,348.324 798,343.5C 798.816,342.177 799.983,341.511 801.5,341.5 Z"/></g>
<g><path style="opacity:1" fill="#072428" d="M 301.5,337.5 C 310.056,335.888 315.39,339.222 317.5,347.5C 314.555,356.428 308.555,359.594 299.5,357C 294.919,353.562 293.419,349.062 295,343.5C 296.494,340.686 298.66,338.686 301.5,337.5 Z"/></g>
<g><path style="opacity:1" fill="#183b41" d="M 824.5,341.5 C 830.425,341.192 836.259,341.525 842,342.5C 842.315,343.908 841.982,345.241 841,346.5C 839.387,345.378 838.22,345.878 837.5,348C 838.167,348.333 838.833,348.667 839.5,349C 839.87,350.61 839.203,352.11 837.5,353.5C 837.709,354.086 838.043,354.586 838.5,355C 837.256,355.456 836.423,354.956 836,353.5C 835.296,355.727 834.129,356.06 832.5,354.5C 832.21,352.978 832.21,351.478 832.5,350C 831.672,349.085 830.672,348.419 829.5,348C 830.833,345.667 830.167,344.667 827.5,345C 827.07,345.92 826.736,346.753 826.5,347.5C 825.167,346.5 823.833,345.5 822.5,344.5C 822.846,343.304 823.346,343.304 824,344.5C 824.483,343.552 824.649,342.552 824.5,341.5 Z"/></g>
<g><path style="opacity:1" fill="#062529" d="M 672.5,337.5 C 682.688,337.837 686.521,342.837 684,352.5C 677.471,359.493 671.471,359.159 666,351.5C 664.398,344.972 666.565,340.305 672.5,337.5 Z"/></g>
<g><path style="opacity:1" fill="#0a2a31" d="M 806.5,341.5 C 812.5,341.5 818.5,341.5 824.5,341.5C 824.649,342.552 824.483,343.552 824,344.5C 823.346,343.304 822.846,343.304 822.5,344.5C 823.833,345.5 825.167,346.5 826.5,347.5C 826.736,346.753 827.07,345.92 827.5,345C 830.167,344.667 830.833,345.667 829.5,348C 830.672,348.419 831.672,349.085 832.5,350C 832.21,351.478 832.21,352.978 832.5,354.5C 832.631,355.239 832.464,355.906 832,356.5C 830.475,356.112 828.808,356.112 827,356.5C 825.568,354.069 824.068,354.069 822.5,356.5C 822.294,354.451 821.461,354.117 820,355.5C 819.185,353.377 818.185,351.377 817,349.5C 816.727,351.101 816.227,352.601 815.5,354C 815.833,354.333 816.167,354.667 816.5,355C 814.231,355.758 812.064,355.591 810,354.5C 808.15,356.962 806.983,356.462 806.5,353C 807.167,352.667 807.833,352.333 808.5,352C 807.5,351.167 806.5,350.333 805.5,349.5C 807.637,347.764 808.304,345.764 807.5,343.5C 806.749,344.376 806.249,345.376 806,346.5C 805.682,344.939 804.849,343.772 803.5,343C 804.737,342.768 805.737,342.268 806.5,341.5 Z"/></g>
<g><path style="opacity:1" fill="#416769" d="M 216.5,340.5 C 220.78,341.622 223.113,344.456 223.5,349C 222.205,355.516 218.538,358.016 212.5,356.5C 211.782,354.863 211.616,353.197 212,351.5C 214.365,350.711 216.532,349.544 218.5,348C 217.428,346.716 216.095,346.383 214.5,347C 215.328,346.085 216.328,345.419 217.5,345C 216.62,343.644 216.286,342.144 216.5,340.5 Z"/></g>
<g><path style="opacity:1" fill="#5b7b81" d="M 801.5,341.5 C 808.492,340.834 815.659,340.5 823,340.5C 830.569,340.519 837.903,341.185 845,342.5C 846.016,341.366 846.683,341.699 847,343.5C 848.666,342.66 848.833,343.16 847.5,345C 848.471,346.204 849.471,346.704 850.5,346.5C 849.215,349.615 847.548,352.949 845.5,356.5C 844.914,356.291 844.414,355.957 844,355.5C 837.115,357.441 829.948,358.108 822.5,357.5C 822.5,357.167 822.5,356.833 822.5,356.5C 824.068,354.069 825.568,354.069 827,356.5C 828.808,356.112 830.475,356.112 832,356.5C 832.464,355.906 832.631,355.239 832.5,354.5C 834.129,356.06 835.296,355.727 836,353.5C 836.423,354.956 837.256,355.456 838.5,355C 838.043,354.586 837.709,354.086 837.5,353.5C 839.203,352.11 839.87,350.61 839.5,349C 838.833,348.667 838.167,348.333 837.5,348C 838.22,345.878 839.387,345.378 841,346.5C 841.982,345.241 842.315,343.908 842,342.5C 836.259,341.525 830.425,341.192 824.5,341.5C 818.5,341.5 812.5,341.5 806.5,341.5C 804.833,341.5 803.167,341.5 801.5,341.5 Z"/></g>
<g><path style="opacity:1" fill="#81999f" d="M 170.5,345.5 C 170.683,347.317 170.683,349.15 170.5,351C 172.246,351.471 173.913,352.138 175.5,353C 174.027,353.71 173.36,354.876 173.5,356.5C 171.188,355.522 169.522,353.855 168.5,351.5C 169.39,350.289 169.39,348.955 168.5,347.5C 168.747,346.287 169.414,345.62 170.5,345.5 Z"/></g>
<g><path style="opacity:1" fill="#13343b" d="M 185.5,340.5 C 195.833,340.5 206.167,340.5 216.5,340.5C 216.286,342.144 216.62,343.644 217.5,345C 216.328,345.419 215.328,346.085 214.5,347C 216.095,346.383 217.428,346.716 218.5,348C 216.532,349.544 214.365,350.711 212,351.5C 211.616,353.197 211.782,354.863 212.5,356.5C 208.6,357.43 204.6,357.763 200.5,357.5C 200.631,356.624 200.298,355.957 199.5,355.5C 194.643,355.295 190.309,355.628 186.5,356.5C 185.614,355.675 185.281,354.675 185.5,353.5C 184.022,353.762 182.689,353.429 181.5,352.5C 182.504,350.323 181.838,349.989 179.5,351.5C 177.465,350.959 175.465,350.292 173.5,349.5C 174.909,349.346 176.576,349.179 178.5,349C 175.054,347.037 175.054,345.704 178.5,345C 176.699,344.683 176.366,344.016 177.5,343C 178.449,342.383 179.282,342.549 180,343.5C 181.719,342.131 183.552,341.131 185.5,340.5 Z"/></g>
<g><path style="opacity:1" fill="#335459" d="M 185.5,340.5 C 183.552,341.131 181.719,342.131 180,343.5C 179.282,342.549 178.449,342.383 177.5,343C 176.366,344.016 176.699,344.683 178.5,345C 175.054,345.704 175.054,347.037 178.5,349C 176.576,349.179 174.909,349.346 173.5,349.5C 175.465,350.292 177.465,350.959 179.5,351.5C 181.838,349.989 182.504,350.323 181.5,352.5C 182.689,353.429 184.022,353.762 185.5,353.5C 185.281,354.675 185.614,355.675 186.5,356.5C 190.309,355.628 194.643,355.295 199.5,355.5C 200.298,355.957 200.631,356.624 200.5,357.5C 191.318,357.827 182.318,357.493 173.5,356.5C 173.36,354.876 174.027,353.71 175.5,353C 173.913,352.138 172.246,351.471 170.5,351C 170.683,349.15 170.683,347.317 170.5,345.5C 170.389,344.883 170.056,344.383 169.5,344C 170.833,343 172.167,342 173.5,341C 177.331,341.018 181.331,340.852 185.5,340.5 Z"/></g>
<g><path style="opacity:1" fill="#032228" d="M 383.5,421.5 C 385.638,421.297 387.305,420.297 388.5,418.5C 388.906,419.557 388.906,420.891 388.5,422.5C 392.759,422.898 394.592,420.898 394,416.5C 395.646,417.779 396.813,419.445 397.5,421.5C 398.892,420.395 400.059,419.061 401,417.5C 401.816,418.823 402.983,419.489 404.5,419.5C 410.889,423.765 417.056,423.432 423,418.5C 427.249,410.697 425.749,404.364 418.5,399.5C 417.862,397.54 417.862,395.707 418.5,394C 417.167,393.667 415.833,393.333 414.5,393C 415.517,391.951 415.684,390.784 415,389.5C 414.586,389.957 414.086,390.291 413.5,390.5C 413.891,389.282 413.224,388.448 411.5,388C 413.715,387.612 415.048,386.612 415.5,385C 414.833,384.667 414.167,384.333 413.5,384C 413.254,382.94 413.254,381.773 413.5,380.5C 411.009,379.459 411.009,378.626 413.5,378C 412.216,377.316 411.049,377.483 410,378.5C 409.53,377.423 409.697,376.423 410.5,375.5C 438.623,368.477 457.789,378.477 468,405.5C 471.54,434.298 459.374,452.131 431.5,459C 403.93,461.071 387.93,448.571 383.5,421.5 Z"/></g>
<g><path style="opacity:1" fill="#032228" d="M 550.5,423.5 C 550.34,421.801 550.506,420.134 551,418.5C 551.383,419.056 551.883,419.389 552.5,419.5C 552.574,421.411 553.574,422.578 555.5,423C 554.289,423.893 554.289,424.726 555.5,425.5C 556.719,424.737 557.719,423.737 558.5,422.5C 559.532,424.04 560.865,424.54 562.5,424C 560.842,423.275 560.342,422.108 561,420.5C 562.544,423.264 563.711,423.097 564.5,420C 563.5,419.667 562.5,419.333 561.5,419C 562.667,418.5 563.5,417.667 564,416.5C 564.991,417.939 566.324,418.939 568,419.5C 568.986,418.829 570.153,418.829 571.5,419.5C 584.755,426.129 591.588,422.129 592,407.5C 590.883,404.241 589.05,401.574 586.5,399.5C 585.526,397.915 584.026,396.915 582,396.5C 580.16,397.833 579.66,397.666 580.5,396C 577.427,393.293 575.76,389.793 575.5,385.5C 574.667,384.5 573.833,383.5 573,382.5C 572.601,382.728 572.435,383.062 572.5,383.5C 571.636,382.312 570.636,381.145 569.5,380C 576.549,375.112 584.382,372.945 593,373.5C 614.939,374.443 628.939,385.443 635,406.5C 638.539,434.596 626.705,452.096 599.5,459C 578.103,461.272 562.603,452.772 553,433.5C 551.85,430.232 551.016,426.899 550.5,423.5 Z"/></g>
<g><path style="opacity:1" fill="#334f56" d="M 804.5,378.5 C 803.603,379.598 802.77,379.598 802,378.5C 801.508,379.549 801.674,380.549 802.5,381.5C 801.975,382.192 801.308,382.692 800.5,383C 802.044,383.29 803.377,383.956 804.5,385C 803.833,385.333 803.167,385.667 802.5,386C 802.833,387 803.167,388 803.5,389C 800.151,389.089 799.651,390.256 802,392.5C 803.527,389.007 805.027,388.507 806.5,391C 804.624,391.918 803.624,393.418 803.5,395.5C 801.742,394.001 799.909,393.668 798,394.5C 797.333,391.833 796.667,391.833 796,394.5C 795.517,393.552 795.351,392.552 795.5,391.5C 794.5,391.5 793.5,391.5 792.5,391.5C 792.608,389.486 791.942,387.82 790.5,386.5C 789.724,383.809 790.391,381.309 792.5,379C 795.362,377.701 798.362,376.868 801.5,376.5C 803.03,376.64 804.03,377.307 804.5,378.5 Z"/></g>
<g><path style="opacity:1" fill="#688c90" d="M 803.5,395.5 C 803.624,393.418 804.624,391.918 806.5,391C 805.027,388.507 803.527,389.007 802,392.5C 799.651,390.256 800.151,389.089 803.5,389C 803.167,388 802.833,387 802.5,386C 803.167,385.667 803.833,385.333 804.5,385C 803.377,383.956 802.044,383.29 800.5,383C 801.308,382.692 801.975,382.192 802.5,381.5C 801.674,380.549 801.508,379.549 802,378.5C 802.77,379.598 803.603,379.598 804.5,378.5C 806.092,377.398 806.925,378.065 807,380.5C 808.825,379.429 809.992,380.096 810.5,382.5C 810.154,383.696 809.654,383.696 809,382.5C 808.517,383.448 808.351,384.448 808.5,385.5C 807.448,385.351 806.448,385.517 805.5,386C 809.852,386.419 810.185,387.086 806.5,388C 810.821,389.443 811.321,391.609 808,394.5C 807.667,394.167 807.333,393.833 807,393.5C 806.29,394.973 805.124,395.64 803.5,395.5 Z"/></g>
<g><path style="opacity:1" fill="#8ca7ab" d="M 833.5,377.5 C 840.321,376.345 847.321,376.179 854.5,377C 856.269,378.019 857.936,378.186 859.5,377.5C 860.192,378.025 860.692,378.692 861,379.5C 861.308,378.692 861.808,378.025 862.5,377.5C 864.929,378.855 866.262,380.522 866.5,382.5C 865.833,383.5 865.167,384.5 864.5,385.5C 866.991,386.541 866.991,387.374 864.5,388C 864.957,388.414 865.291,388.914 865.5,389.5C 864.606,389.517 863.606,389.851 862.5,390.5C 860.876,390.64 859.71,389.973 859,388.5C 858.282,389.451 857.449,389.617 856.5,389C 857.833,387.333 859.167,385.667 860.5,384C 858.77,382.148 857.604,382.314 857,384.5C 856.722,383.584 856.222,382.918 855.5,382.5C 854.811,381.293 854.645,379.959 855,378.5C 854.086,379.654 853.253,379.487 852.5,378C 849.518,377.502 846.518,377.335 843.5,377.5C 842.542,377.953 841.708,378.619 841,379.5C 840.692,378.692 840.192,378.025 839.5,377.5C 837.674,377.92 835.674,377.92 833.5,377.5 Z"/></g>
<g><path style="opacity:1" fill="#2a4b53" d="M 225.5,378.5 C 226.043,378.56 226.376,378.893 226.5,379.5C 224.973,381.193 223.64,383.027 222.5,385C 224.017,386.779 224.851,386.279 225,383.5C 226.074,384.618 227.24,385.618 228.5,386.5C 227.691,388.071 227.357,389.738 227.5,391.5C 226.127,391.343 224.793,391.51 223.5,392C 224.956,392.423 225.456,393.256 225,394.5C 223.004,393.659 221.171,393.992 219.5,395.5C 215.416,395.667 211.083,395.667 206.5,395.5C 204.164,394.155 202.497,392.155 201.5,389.5C 201.5,387.5 201.5,385.5 201.5,383.5C 202.986,381.698 203.986,379.698 204.5,377.5C 208.238,377.724 212.071,377.391 216,376.5C 219.364,376.422 222.53,377.089 225.5,378.5 Z"/></g>
<g><path style="opacity:1" fill="#062227" d="M 300.5,376.5 C 306.652,375.408 311.818,377.075 316,381.5C 318.348,393.82 313.181,398.987 300.5,397C 294.891,393.723 293.058,388.89 295,382.5C 296.36,379.977 298.193,377.977 300.5,376.5 Z"/></g>
<g><path style="opacity:1" fill="#20444b" d="M 833.5,377.5 C 835.674,377.92 837.674,377.92 839.5,377.5C 840.192,378.025 840.692,378.692 841,379.5C 841.708,378.619 842.542,377.953 843.5,377.5C 843.604,379.973 844.604,380.639 846.5,379.5C 848.922,381.286 848.922,382.952 846.5,384.5C 847.716,385.096 849.049,385.263 850.5,385C 848.749,386.549 847.083,387.382 845.5,387.5C 846.09,388.799 847.09,389.632 848.5,390C 847.299,390.903 846.465,392.069 846,393.5C 845.333,392.167 844.667,392.167 844,393.5C 843.066,390.035 841.566,389.702 839.5,392.5C 838.833,392.167 838.167,391.833 837.5,391.5C 836.158,393.005 834.492,393.672 832.5,393.5C 831.047,392.175 831.381,391.342 833.5,391C 833.153,389.431 832.986,387.598 833,385.5C 834.044,386.623 834.71,387.956 835,389.5C 835.707,387.919 836.54,386.419 837.5,385C 836.333,384.5 835.5,383.667 835,382.5C 834.309,384.891 833.309,384.891 832,382.5C 830.607,385.125 829.441,385.125 828.5,382.5C 829.791,381.527 829.791,380.527 828.5,379.5C 829.85,378.05 831.516,377.383 833.5,377.5 Z"/></g>
<g><path style="opacity:1" fill="#77979c" d="M 156.5,377.5 C 159.817,376.835 163.317,376.501 167,376.5C 170.931,376.544 174.598,377.211 178,378.5C 179.395,377.185 180.395,377.519 181,379.5C 181.333,379.167 181.667,378.833 182,378.5C 182.711,380.367 182.211,381.867 180.5,383C 181.167,383.333 181.833,383.667 182.5,384C 179.888,386.151 179.888,386.985 182.5,386.5C 185.171,389.121 185.005,391.454 182,393.5C 181.667,392.5 181.333,391.5 181,390.5C 180.138,392.087 179.471,393.754 179,395.5C 178.617,394.944 178.117,394.611 177.5,394.5C 177.249,392.83 176.582,391.33 175.5,390C 175.833,389.667 176.167,389.333 176.5,389C 175.256,388.544 174.423,389.044 174,390.5C 173.449,388.647 174.115,387.313 176,386.5C 176.333,386.833 176.667,387.167 177,387.5C 180.333,385.5 180.333,383.5 177,381.5C 176.667,381.833 176.333,382.167 176,382.5C 174.956,381.377 174.29,380.044 174,378.5C 172.571,378.47 171.071,378.803 169.5,379.5C 168.259,377.069 167.092,377.069 166,379.5C 163.196,377.656 160.03,376.989 156.5,377.5 Z"/></g>
<g><path style="opacity:1" fill="#1f4046" d="M 154.5,377.5 C 155.167,377.5 155.833,377.5 156.5,377.5C 160.03,376.989 163.196,377.656 166,379.5C 167.092,377.069 168.259,377.069 169.5,379.5C 171.42,380.821 171.587,382.154 170,383.5C 169.667,382.833 169.333,382.167 169,381.5C 168.535,382.931 167.701,384.097 166.5,385C 167.449,385.617 168.282,385.451 169,384.5C 169.311,385.742 168.811,386.742 167.5,387.5C 168.276,389.356 169.609,390.689 171.5,391.5C 170.738,391.911 169.738,392.077 168.5,392C 169.833,393.84 169.666,394.34 168,393.5C 167.536,394.094 167.369,394.761 167.5,395.5C 162.378,395.419 157.878,394.419 154,392.5C 153.682,390.939 152.849,389.772 151.5,389C 152.858,387.168 153.192,385.335 152.5,383.5C 153.173,379.965 154.673,379.632 157,382.5C 157.167,382.167 157.333,381.833 157.5,381.5C 155.712,380.717 154.712,379.384 154.5,377.5 Z"/></g>
<g><path style="opacity:1" fill="#365960" d="M 177.5,394.5 C 177.565,394.938 177.399,395.272 177,395.5C 176.374,393.009 175.541,393.009 174.5,395.5C 172.345,395.162 170.011,395.162 167.5,395.5C 167.369,394.761 167.536,394.094 168,393.5C 169.666,394.34 169.833,393.84 168.5,392C 169.738,392.077 170.738,391.911 171.5,391.5C 169.609,390.689 168.276,389.356 167.5,387.5C 168.811,386.742 169.311,385.742 169,384.5C 168.282,385.451 167.449,385.617 166.5,385C 167.701,384.097 168.535,382.931 169,381.5C 169.333,382.167 169.667,382.833 170,383.5C 171.587,382.154 171.42,380.821 169.5,379.5C 171.071,378.803 172.571,378.47 174,378.5C 174.29,380.044 174.956,381.377 176,382.5C 176.333,382.167 176.667,381.833 177,381.5C 180.333,383.5 180.333,385.5 177,387.5C 176.667,387.167 176.333,386.833 176,386.5C 174.115,387.313 173.449,388.647 174,390.5C 174.423,389.044 175.256,388.544 176.5,389C 176.167,389.333 175.833,389.667 175.5,390C 176.582,391.33 177.249,392.83 177.5,394.5 Z"/></g>
<g><path style="opacity:1" fill="#062528" d="M 338.5,376.5 C 351.501,375.86 355.667,381.527 351,393.5C 345.279,398.627 339.613,398.627 334,393.5C 330.931,386.46 332.431,380.793 338.5,376.5 Z"/></g>
<g><path style="opacity:1" fill="#426569" d="M 828.5,382.5 C 829.441,385.125 830.607,385.125 832,382.5C 833.309,384.891 834.309,384.891 835,382.5C 835.5,383.667 836.333,384.5 837.5,385C 836.54,386.419 835.707,387.919 835,389.5C 834.71,387.956 834.044,386.623 833,385.5C 832.986,387.598 833.153,389.431 833.5,391C 831.381,391.342 831.047,392.175 832.5,393.5C 830.198,394.86 828.532,394.193 827.5,391.5C 827.833,390.167 828.167,388.833 828.5,387.5C 825.972,386.483 825.972,385.316 828.5,384C 825.903,383.221 825.903,382.721 828.5,382.5 Z"/></g>
<g><path style="opacity:1" fill="#193941" d="M 410.5,375.5 C 409.697,376.423 409.53,377.423 410,378.5C 411.049,377.483 412.216,377.316 413.5,378C 411.009,378.626 411.009,379.459 413.5,380.5C 413.254,381.773 413.254,382.94 413.5,384C 414.167,384.333 414.833,384.667 415.5,385C 415.048,386.612 413.715,387.612 411.5,388C 413.224,388.448 413.891,389.282 413.5,390.5C 414.086,390.291 414.586,389.957 415,389.5C 415.684,390.784 415.517,391.951 414.5,393C 415.833,393.333 417.167,393.667 418.5,394C 417.862,395.707 417.862,397.54 418.5,399.5C 414.883,398.343 411.216,398.343 407.5,399.5C 407.232,396.881 407.565,394.381 408.5,392C 405.951,388.008 403.285,384.175 400.5,380.5C 403.577,378.295 406.91,376.628 410.5,375.5 Z"/></g>
<g><path style="opacity:1" fill="#082629" d="M 671.5,376.5 C 685.087,376.846 688.754,383.013 682.5,395C 670.834,399.997 665,396.164 665,383.5C 666.694,380.642 668.861,378.309 671.5,376.5 Z"/></g>
<g><path style="opacity:1" fill="#6b8689" d="M 154.5,377.5 C 154.712,379.384 155.712,380.717 157.5,381.5C 157.333,381.833 157.167,382.167 157,382.5C 154.673,379.632 153.173,379.965 152.5,383.5C 153.192,385.335 152.858,387.168 151.5,389C 152.849,389.772 153.682,390.939 154,392.5C 157.878,394.419 162.378,395.419 167.5,395.5C 156.853,398.861 150.853,395.194 149.5,384.5C 150.032,381.309 151.698,378.976 154.5,377.5 Z"/></g>
<g><path style="opacity:1" fill="#31585b" d="M 843.5,377.5 C 846.518,377.335 849.518,377.502 852.5,378C 853.253,379.487 854.086,379.654 855,378.5C 854.645,379.959 854.811,381.293 855.5,382.5C 854.265,382.279 853.265,381.612 852.5,380.5C 851.713,381.242 851.047,382.075 850.5,383C 852.332,383.748 853.999,384.748 855.5,386C 853.668,386.748 852.001,387.748 850.5,389C 851.5,390.667 852.5,392.333 853.5,394C 852.944,394.383 852.611,394.883 852.5,395.5C 845.416,396.126 838.75,395.459 832.5,393.5C 834.492,393.672 836.158,393.005 837.5,391.5C 838.167,391.833 838.833,392.167 839.5,392.5C 841.566,389.702 843.066,390.035 844,393.5C 844.667,392.167 845.333,392.167 846,393.5C 846.465,392.069 847.299,390.903 848.5,390C 847.09,389.632 846.09,388.799 845.5,387.5C 847.083,387.382 848.749,386.549 850.5,385C 849.049,385.263 847.716,385.096 846.5,384.5C 848.922,382.952 848.922,381.286 846.5,379.5C 844.604,380.639 843.604,379.973 843.5,377.5 Z"/></g>
<g><path style="opacity:1" fill="#98b3b7" d="M 225.5,378.5 C 225.56,377.957 225.893,377.624 226.5,377.5C 229.879,379.443 231.545,382.11 231.5,385.5C 231.229,393.094 227.229,396.428 219.5,395.5C 221.171,393.992 223.004,393.659 225,394.5C 225.456,393.256 224.956,392.423 223.5,392C 224.793,391.51 226.127,391.343 227.5,391.5C 227.357,389.738 227.691,388.071 228.5,386.5C 227.24,385.618 226.074,384.618 225,383.5C 224.851,386.279 224.017,386.779 222.5,385C 223.64,383.027 224.973,381.193 226.5,379.5C 226.376,378.893 226.043,378.56 225.5,378.5 Z"/></g>
<g><path style="opacity:1" fill="#5d7f88" d="M 855.5,382.5 C 856.222,382.918 856.722,383.584 857,384.5C 857.604,382.314 858.77,382.148 860.5,384C 859.167,385.667 857.833,387.333 856.5,389C 857.449,389.617 858.282,389.451 859,388.5C 859.71,389.973 860.876,390.64 862.5,390.5C 860.279,394.277 856.946,395.944 852.5,395.5C 852.611,394.883 852.944,394.383 853.5,394C 852.5,392.333 851.5,390.667 850.5,389C 852.001,387.748 853.668,386.748 855.5,386C 853.999,384.748 852.332,383.748 850.5,383C 851.047,382.075 851.713,381.242 852.5,380.5C 853.265,381.612 854.265,382.279 855.5,382.5 Z"/></g>
<g><path style="opacity:1" fill="#81979c" d="M 204.5,377.5 C 203.986,379.698 202.986,381.698 201.5,383.5C 201.5,385.5 201.5,387.5 201.5,389.5C 202.497,392.155 204.164,394.155 206.5,395.5C 201.728,394.242 199.062,391.409 198.5,387C 199.167,386.667 199.833,386.333 200.5,386C 198.797,382.209 200.131,379.376 204.5,377.5 Z"/></g>
<g><path style="opacity:1" fill="#3b5c63" d="M 586.5,399.5 C 582.949,398.39 579.449,398.39 576,399.5C 575.757,393.945 574.591,388.611 572.5,383.5C 572.435,383.062 572.601,382.728 573,382.5C 573.833,383.5 574.667,384.5 575.5,385.5C 575.76,389.793 577.427,393.293 580.5,396C 579.66,397.666 580.16,397.833 582,396.5C 584.026,396.915 585.526,397.915 586.5,399.5 Z"/></g>
<g><path style="opacity:1" fill="#778e92" d="M 790.5,386.5 C 791.942,387.82 792.608,389.486 792.5,391.5C 793.5,391.5 794.5,391.5 795.5,391.5C 795.351,392.552 795.517,393.552 796,394.5C 796.667,391.833 797.333,391.833 798,394.5C 799.909,393.668 801.742,394.001 803.5,395.5C 797.737,397.521 793.237,395.854 790,390.5C 789.235,388.934 789.402,387.601 790.5,386.5 Z"/></g>
<g><path style="opacity:1" fill="#608186" d="M 552.5,406.5 C 552.656,410.135 553.822,410.468 556,407.5C 558.293,409.599 560.793,410.433 563.5,410C 564.126,410.75 564.626,411.584 565,412.5C 565.278,411.584 565.778,410.918 566.5,410.5C 567.806,411.467 568.473,412.801 568.5,414.5C 567.883,414.611 567.383,414.944 567,415.5C 563.64,415.074 560.807,414.074 558.5,412.5C 558.331,414.117 557.997,415.784 557.5,417.5C 556.833,416.5 556.167,415.5 555.5,414.5C 555.167,415.167 554.833,415.833 554.5,416.5C 553.269,415.349 553.269,414.183 554.5,413C 553.149,411.186 552.149,411.519 551.5,414C 552.873,415.861 553.206,417.694 552.5,419.5C 551.883,419.389 551.383,419.056 551,418.5C 550.506,420.134 550.34,421.801 550.5,423.5C 549.114,417.644 549.781,411.978 552.5,406.5 Z"/></g>
<g><path style="opacity:1" fill="#a6bec2" d="M 552.5,406.5 C 555.044,406.104 557.211,406.771 559,408.5C 560.703,406.579 562.703,406.579 565,408.5C 565.945,408.095 566.612,407.428 567,406.5C 567.5,407.5 568,408.5 568.5,409.5C 568.043,410.298 567.376,410.631 566.5,410.5C 565.778,410.918 565.278,411.584 565,412.5C 564.626,411.584 564.126,410.75 563.5,410C 560.793,410.433 558.293,409.599 556,407.5C 553.822,410.468 552.656,410.135 552.5,406.5 Z"/></g>
<g><path style="opacity:1" fill="#77989c" d="M 399.5,411.5 C 398.175,410.047 397.342,410.381 397,412.5C 395.603,409.693 393.769,409.193 391.5,411C 392.252,411.671 392.586,412.504 392.5,413.5C 390.121,412.433 389.121,413.433 389.5,416.5C 387.5,415.833 385.5,415.167 383.5,414.5C 383.784,411.746 384.451,409.08 385.5,406.5C 388.167,407.167 390.833,407.833 393.5,408.5C 394.801,407.522 395.968,407.855 397,409.5C 397.945,409.095 398.612,408.428 399,407.5C 400.334,408.878 400.501,410.211 399.5,411.5 Z"/></g>
<g><path style="opacity:1" fill="#4b6f75" d="M 399.5,411.5 C 400.492,411.328 401.158,411.662 401.5,412.5C 400.317,413.504 398.984,414.338 397.5,415C 398.451,415.718 398.617,416.551 398,417.5C 397.085,416.672 396.419,415.672 396,414.5C 395.667,414.833 395.333,415.167 395,415.5C 394.292,414.619 393.458,413.953 392.5,413.5C 392.586,412.504 392.252,411.671 391.5,411C 393.769,409.193 395.603,409.693 397,412.5C 397.342,410.381 398.175,410.047 399.5,411.5 Z"/></g>
<g><path style="opacity:1" fill="#224a50" d="M 568.5,414.5 C 569.737,415.965 570.737,417.632 571.5,419.5C 570.153,418.829 568.986,418.829 568,419.5C 566.324,418.939 564.991,417.939 564,416.5C 563.5,417.667 562.667,418.5 561.5,419C 562.5,419.333 563.5,419.667 564.5,420C 563.711,423.097 562.544,423.264 561,420.5C 560.342,422.108 560.842,423.275 562.5,424C 560.865,424.54 559.532,424.04 558.5,422.5C 557.719,423.737 556.719,424.737 555.5,425.5C 554.289,424.726 554.289,423.893 555.5,423C 553.574,422.578 552.574,421.411 552.5,419.5C 553.206,417.694 552.873,415.861 551.5,414C 552.149,411.519 553.149,411.186 554.5,413C 553.269,414.183 553.269,415.349 554.5,416.5C 554.833,415.833 555.167,415.167 555.5,414.5C 556.167,415.5 556.833,416.5 557.5,417.5C 557.997,415.784 558.331,414.117 558.5,412.5C 560.807,414.074 563.64,415.074 567,415.5C 567.383,414.944 567.883,414.611 568.5,414.5 Z"/></g>
<g><path style="opacity:1" fill="#2c4f54" d="M 392.5,413.5 C 393.458,413.953 394.292,414.619 395,415.5C 395.333,415.167 395.667,414.833 396,414.5C 396.419,415.672 397.085,416.672 398,417.5C 398.617,416.551 398.451,415.718 397.5,415C 398.984,414.338 400.317,413.504 401.5,412.5C 402.227,414.954 403.227,417.287 404.5,419.5C 402.983,419.489 401.816,418.823 401,417.5C 400.059,419.061 398.892,420.395 397.5,421.5C 396.813,419.445 395.646,417.779 394,416.5C 394.592,420.898 392.759,422.898 388.5,422.5C 388.906,420.891 388.906,419.557 388.5,418.5C 387.305,420.297 385.638,421.297 383.5,421.5C 383.5,419.167 383.5,416.833 383.5,414.5C 385.5,415.167 387.5,415.833 389.5,416.5C 389.121,413.433 390.121,412.433 392.5,413.5 Z"/></g>
<g><path style="opacity:1" fill="#91a4a8" d="M 742.5,229.5 C 743.499,293.331 743.832,357.331 743.5,421.5C 729.833,421.5 716.167,421.5 702.5,421.5C 698.5,421.5 694.5,421.5 690.5,421.5C 689.167,421.5 687.833,421.5 686.5,421.5C 685.5,421.5 684.5,421.5 683.5,421.5C 702.993,420.503 722.66,420.17 742.5,420.5C 742.5,356.833 742.5,293.167 742.5,229.5 Z"/></g>
<g><path style="opacity:1" fill="#aabec2" d="M 811.5,422.5 C 828.833,421.167 846.167,421.167 863.5,422.5C 846.014,422.611 828.68,422.611 811.5,422.5 Z"/></g>
<g><path style="opacity:1" fill="#04242a" d="M 153.5,422.5 C 172.836,422.333 192.17,422.5 211.5,423C 216.081,426.438 217.581,430.938 216,436.5C 214.833,439 213,440.833 210.5,442C 191.833,442.667 173.167,442.667 154.5,442C 145.522,435.96 145.189,429.46 153.5,422.5 Z"/></g>
<g><path style="opacity:1" fill="#04242a" d="M 811.5,422.5 C 828.68,422.611 846.014,422.611 863.5,422.5C 864.167,422.5 864.5,422.833 864.5,423.5C 864.9,425.377 865.9,426.877 867.5,428C 867.167,428.5 866.833,429 866.5,429.5C 866.167,428.833 865.833,428.167 865.5,427.5C 864.646,428.522 863.646,429.355 862.5,430C 863.833,430.667 863.833,431.333 862.5,432C 861.101,432.595 859.768,432.428 858.5,431.5C 858.089,432.262 857.923,433.262 858,434.5C 857.346,433.304 856.846,433.304 856.5,434.5C 857.236,436.793 857.402,439.126 857,441.5C 858.007,439.258 858.841,439.592 859.5,442.5C 842.83,442.667 826.163,442.5 809.5,442C 803.766,438.82 801.933,433.987 804,427.5C 805.41,424.211 807.91,422.544 811.5,422.5 Z"/></g>
<g><path style="opacity:1" fill="#567579" d="M 683.5,421.5 C 684.5,421.5 685.5,421.5 686.5,421.5C 684.611,422.322 682.611,423.155 680.5,424C 681.833,425 681.833,426 680.5,427C 681.784,427.684 682.951,427.517 684,426.5C 686.096,427.715 685.929,428.549 683.5,429C 684.93,430.886 686.597,432.553 688.5,434C 686.998,434.583 685.665,435.416 684.5,436.5C 685.262,436.911 686.262,437.077 687.5,437C 686.748,437.671 686.414,438.504 686.5,439.5C 683.258,439.429 680.425,438.429 678,436.5C 677.329,437.252 676.496,437.586 675.5,437.5C 675.203,435.129 675.203,432.296 675.5,429C 674.5,427 673.5,427 672.5,429C 673.455,432.312 673.121,432.312 671.5,429C 673.098,427.274 672.765,426.441 670.5,426.5C 670.972,423.481 672.472,422.481 675,423.5C 676,420.833 677,420.833 678,423.5C 679.401,421.808 681.234,421.141 683.5,421.5 Z"/></g>
<g><path style="opacity:1" fill="#0f2e36" d="M 310.5,421.5 C 314.833,421.5 319.167,421.5 323.5,421.5C 323.577,422.75 324.244,423.583 325.5,424C 324.549,424.718 324.383,425.551 325,426.5C 326.833,426.333 328.667,426.167 330.5,426C 329.874,426.75 329.374,427.584 329,428.5C 327.984,427.366 327.317,427.699 327,429.5C 326.444,427.405 325.944,427.238 325.5,429C 326.958,431.121 328.958,432.454 331.5,433C 330.5,433.333 329.5,433.667 328.5,434C 329.458,435.147 329.125,436.147 327.5,437C 328.171,437.986 328.171,439.153 327.5,440.5C 324.518,440.963 321.518,441.296 318.5,441.5C 318.421,440.07 318.754,438.736 319.5,437.5C 318.603,437.331 317.603,436.998 316.5,436.5C 316.167,435.833 315.833,435.167 315.5,434.5C 317.836,433.406 317.836,432.073 315.5,430.5C 311.631,431.584 307.631,431.417 303.5,430C 304.191,428.933 304.691,427.766 305,426.5C 307.066,430.506 308.566,430.173 309.5,425.5C 310.192,426.025 310.692,426.692 311,427.5C 311.18,425.512 311.014,423.512 310.5,421.5 Z"/></g>
<g><path style="opacity:1" fill="#618287" d="M 340.5,421.5 C 342.527,421.338 344.527,421.505 346.5,422C 347.056,422.383 347.389,422.883 347.5,423.5C 348.791,426.707 347.791,427.874 344.5,427C 345.214,428.343 344.88,429.676 343.5,431C 344.861,432.584 345.528,434.418 345.5,436.5C 344.469,437.249 343.302,437.915 342,438.5C 341.667,438.167 341.333,437.833 341,437.5C 337.951,438.61 334.784,439.277 331.5,439.5C 332.193,435.238 333.026,434.905 334,438.5C 334.465,437.069 335.299,435.903 336.5,435C 335.207,434.51 333.873,434.343 332.5,434.5C 332.176,431.306 333.342,430.306 336,431.5C 337.017,428.972 338.184,428.972 339.5,431.5C 339.109,430.282 339.776,429.448 341.5,429C 340.464,427.383 339.297,427.216 338,428.5C 335.764,426.324 336.264,424.991 339.5,424.5C 340.478,424.977 341.311,425.643 342,426.5C 342.925,425.953 343.758,425.287 344.5,424.5C 344.062,423.494 343.396,423.494 342.5,424.5C 341.575,423.643 340.908,422.643 340.5,421.5 Z"/></g>
<g><path style="opacity:1" fill="#2b4d53" d="M 686.5,421.5 C 687.833,421.5 689.167,421.5 690.5,421.5C 689.321,423.507 689.821,423.84 692,422.5C 692.167,423.167 692.333,423.833 692.5,424.5C 691.046,426.457 689.38,428.29 687.5,430C 688.5,430.5 689.5,431 690.5,431.5C 690.307,430.312 690.807,428.978 692,427.5C 692.611,431.272 693.611,431.272 695,427.5C 695.308,428.308 695.808,428.975 696.5,429.5C 696.736,428.753 697.07,427.92 697.5,427C 698.167,426.333 698.833,426.333 699.5,427C 698.704,430.07 696.704,431.737 693.5,432C 695.301,432.317 695.634,432.984 694.5,434C 695.956,434.423 696.456,435.256 696,436.5C 695.282,435.549 694.449,435.383 693.5,436C 697.08,440.314 700.747,441.147 704.5,438.5C 703.973,440.086 704.639,441.42 706.5,442.5C 699.793,441.759 693.127,440.759 686.5,439.5C 686.414,438.504 686.748,437.671 687.5,437C 686.262,437.077 685.262,436.911 684.5,436.5C 685.665,435.416 686.998,434.583 688.5,434C 686.597,432.553 684.93,430.886 683.5,429C 685.929,428.549 686.096,427.715 684,426.5C 682.951,427.517 681.784,427.684 680.5,427C 681.833,426 681.833,425 680.5,424C 682.611,423.155 684.611,422.322 686.5,421.5 Z"/></g>
<g><path style="opacity:1" fill="#a1b8bc" d="M 347.5,423.5 C 348.965,424.406 349.965,425.739 350.5,427.5C 350.306,429.07 350.306,430.57 350.5,432C 349.589,434.415 347.922,435.915 345.5,436.5C 345.528,434.418 344.861,432.584 343.5,431C 344.88,429.676 345.214,428.343 344.5,427C 347.791,427.874 348.791,426.707 347.5,423.5 Z"/></g>
<g><path style="opacity:1" fill="#a8bfc2" d="M 670.5,426.5 C 672.765,426.441 673.098,427.274 671.5,429C 673.121,432.312 673.455,432.312 672.5,429C 673.5,427 674.5,427 675.5,429C 675.203,432.296 675.203,435.129 675.5,437.5C 669.811,435.556 668.144,431.89 670.5,426.5 Z"/></g>
<g><path style="opacity:1" fill="#274951" d="M 323.5,421.5 C 329.167,421.5 334.833,421.5 340.5,421.5C 340.908,422.643 341.575,423.643 342.5,424.5C 343.396,423.494 344.062,423.494 344.5,424.5C 343.758,425.287 342.925,425.953 342,426.5C 341.311,425.643 340.478,424.977 339.5,424.5C 336.264,424.991 335.764,426.324 338,428.5C 339.297,427.216 340.464,427.383 341.5,429C 339.776,429.448 339.109,430.282 339.5,431.5C 338.184,428.972 337.017,428.972 336,431.5C 333.342,430.306 332.176,431.306 332.5,434.5C 333.873,434.343 335.207,434.51 336.5,435C 335.299,435.903 334.465,437.069 334,438.5C 333.026,434.905 332.193,435.238 331.5,439.5C 330.292,440.234 328.959,440.567 327.5,440.5C 328.171,439.153 328.171,437.986 327.5,437C 329.125,436.147 329.458,435.147 328.5,434C 329.5,433.667 330.5,433.333 331.5,433C 328.958,432.454 326.958,431.121 325.5,429C 325.944,427.238 326.444,427.405 327,429.5C 327.317,427.699 327.984,427.366 329,428.5C 329.374,427.584 329.874,426.75 330.5,426C 328.667,426.167 326.833,426.333 325,426.5C 324.383,425.551 324.549,424.718 325.5,424C 324.244,423.583 323.577,422.75 323.5,421.5 Z"/></g>
<g><path style="opacity:1" fill="#113239" d="M 690.5,421.5 C 694.5,421.5 698.5,421.5 702.5,421.5C 700.407,422.886 700.574,424.553 703,426.5C 704.156,425.007 704.99,425.174 705.5,427C 704.123,429.291 702.957,431.458 702,433.5C 703.458,432.253 704.958,432.253 706.5,433.5C 707.216,431.518 708.383,429.851 710,428.5C 709.888,430.178 709.388,431.845 708.5,433.5C 709.757,433.947 710.757,435.281 711.5,437.5C 710.336,437.165 709.003,437.165 707.5,437.5C 709.882,439.215 711.882,441.215 713.5,443.5C 711.097,443.552 708.764,443.219 706.5,442.5C 704.639,441.42 703.973,440.086 704.5,438.5C 700.747,441.147 697.08,440.314 693.5,436C 694.449,435.383 695.282,435.549 696,436.5C 696.456,435.256 695.956,434.423 694.5,434C 695.634,432.984 695.301,432.317 693.5,432C 696.704,431.737 698.704,430.07 699.5,427C 698.833,426.333 698.167,426.333 697.5,427C 697.07,427.92 696.736,428.753 696.5,429.5C 695.808,428.975 695.308,428.308 695,427.5C 693.611,431.272 692.611,431.272 692,427.5C 690.807,428.978 690.307,430.312 690.5,431.5C 689.5,431 688.5,430.5 687.5,430C 689.38,428.29 691.046,426.457 692.5,424.5C 692.333,423.833 692.167,423.167 692,422.5C 689.821,423.84 689.321,423.507 690.5,421.5 Z"/></g>
<g><path style="opacity:1" fill="#183a3e" d="M 864.5,423.5 C 866.752,423.916 868.252,425.249 869,427.5C 871.796,436.213 868.63,441.213 859.5,442.5C 858.841,439.592 858.007,439.258 857,441.5C 857.402,439.126 857.236,436.793 856.5,434.5C 856.846,433.304 857.346,433.304 858,434.5C 857.923,433.262 858.089,432.262 858.5,431.5C 859.768,432.428 861.101,432.595 862.5,432C 863.833,431.333 863.833,430.667 862.5,430C 863.646,429.355 864.646,428.522 865.5,427.5C 865.833,428.167 866.167,428.833 866.5,429.5C 866.833,429 867.167,428.5 867.5,428C 865.9,426.877 864.9,425.377 864.5,423.5 Z"/></g>
<g><path style="opacity:1" fill="#798e8e" d="M 335.5,455.5 C 338.167,454.167 340.833,454.167 343.5,455.5C 341.005,455.969 338.339,455.969 335.5,455.5 Z"/></g>
<g><path style="opacity:1" fill="#022228" d="M 325.5,458.5 C 330.738,460.071 335.738,461.571 340.5,463C 338.956,463.29 337.623,463.956 336.5,465C 337.817,466.767 339.484,468.101 341.5,469C 340.167,470 340.167,471 341.5,472C 339.809,474.264 337.809,476.098 335.5,477.5C 316.354,483.625 297.021,489.458 277.5,495C 276.518,503.081 276.184,511.248 276.5,519.5C 281.562,518.035 286.562,516.368 291.5,514.5C 293.441,514.869 295.275,515.536 297,516.5C 296.923,515.262 297.089,514.262 297.5,513.5C 298.167,515.833 298.833,518.167 299.5,520.5C 300.215,518.222 301.382,516.889 303,516.5C 303.043,519.217 304.043,519.884 306,518.5C 308.024,518.8 308.524,519.633 307.5,521C 312.734,521.547 312.734,522.38 307.5,523.5C 306.719,522.271 306.219,520.938 306,519.5C 305.257,521.441 305.424,523.274 306.5,525C 303.965,525.928 302.965,527.762 303.5,530.5C 302.127,530.343 300.793,530.51 299.5,531C 301.058,531.21 302.391,531.71 303.5,532.5C 296.581,535.293 289.914,538.626 283.5,542.5C 286.363,548.863 291.03,553.363 297.5,556C 350.167,556.333 402.833,556.667 455.5,557C 459.783,559.615 463.783,562.615 467.5,566C 481.402,579.188 495.568,592.022 510,604.5C 525.086,592.085 539.586,578.918 553.5,565C 556.887,561.947 560.553,559.28 564.5,557C 617.5,556.667 670.5,556.333 723.5,556C 729.846,553.654 734.18,549.32 736.5,543C 729.144,538.655 721.478,534.822 713.5,531.5C 714.739,529.293 715.239,526.959 715,524.5C 714.667,525.167 714.333,525.833 714,526.5C 712.527,526.868 711.027,526.368 709.5,525C 710.167,524.667 710.833,524.333 711.5,524C 710.044,523.577 709.544,522.744 710,521.5C 711.367,522.524 712.2,522.024 712.5,520C 711.968,517.98 710.635,517.147 708.5,517.5C 708.649,518.552 708.483,519.552 708,520.5C 706.925,517.469 707.925,515.469 711,514.5C 712.389,518.272 713.389,518.272 714,514.5C 714.333,515.167 714.667,515.833 715,516.5C 715.953,514.408 717.286,514.075 719,515.5C 718.945,513.892 718.112,512.558 716.5,511.5C 715.833,511.833 715.167,512.167 714.5,512.5C 713.224,511.386 713.224,510.386 714.5,509.5C 724.5,512.833 734.5,516.167 744.5,519.5C 744.5,511.5 744.5,503.5 744.5,495.5C 721.845,489.067 699.178,482.567 676.5,476C 671.814,474.143 669.481,470.643 669.5,465.5C 669.397,458.703 672.731,455.036 679.5,454.5C 700.628,459.365 721.628,464.699 742.5,470.5C 743.484,467.572 743.817,464.572 743.5,461.5C 754.5,461.5 765.5,461.5 776.5,461.5C 776.5,466.833 776.5,472.167 776.5,477.5C 790.951,480.816 805.284,484.649 819.5,489C 827.083,493.078 829.583,499.244 827,507.5C 823.726,512.931 818.893,515.597 812.5,515.5C 800.407,512.81 788.407,509.81 776.5,506.5C 778.455,529.785 772.621,550.785 759,569.5C 746.911,583.296 731.744,591.463 713.5,594C 665.167,594.333 616.833,594.667 568.5,595C 553.5,608.667 538.5,622.333 523.5,636C 512.642,642.546 502.309,641.879 492.5,634C 478.5,621 464.5,608 450.5,595C 401.833,594.667 353.167,594.333 304.5,594C 270.734,586.565 250.901,565.731 245,531.5C 243.877,523.203 243.377,514.87 243.5,506.5C 230.628,509.259 217.795,512.259 205,515.5C 196.547,515.047 192.047,510.547 191.5,502C 192.019,496.965 194.352,492.965 198.5,490C 213.327,485.112 228.327,480.945 243.5,477.5C 243.5,472.167 243.5,466.833 243.5,461.5C 254.5,461.5 265.5,461.5 276.5,461.5C 276.5,464.5 276.5,467.5 276.5,470.5C 292.829,466.502 309.162,462.502 325.5,458.5 Z"/></g>
<g><path style="opacity:1" fill="#0f3134" d="M 335.5,455.5 C 338.339,455.969 341.005,455.969 343.5,455.5C 349.362,457.891 351.529,462.224 350,468.5C 347.063,474.393 342.23,477.393 335.5,477.5C 337.809,476.098 339.809,474.264 341.5,472C 340.167,471 340.167,470 341.5,469C 339.484,468.101 337.817,466.767 336.5,465C 337.623,463.956 338.956,463.29 340.5,463C 335.738,461.571 330.738,460.071 325.5,458.5C 328.619,457.13 331.952,456.13 335.5,455.5 Z"/></g>
<g><path style="opacity:1" fill="#032227" d="M 481.5,467.5 C 500.503,467.333 519.503,467.5 538.5,468C 545.8,471.438 547.967,476.938 545,484.5C 537.023,492.809 528.69,500.809 520,508.5C 519.333,512.833 519.333,517.167 520,521.5C 526.408,527.238 532.075,533.571 537,540.5C 537.393,551.104 532.227,555.937 521.5,555C 517.069,552.404 513.069,549.238 509.5,545.5C 506.683,547.817 504.016,550.317 501.5,553C 488.969,558.127 482.469,553.96 482,540.5C 487,534.167 492.667,528.5 499,523.5C 499.667,518.5 499.667,513.5 499,508.5C 489.973,500.806 481.64,492.473 474,483.5C 471.984,475.871 474.484,470.538 481.5,467.5 Z"/></g>
<g><path style="opacity:1" fill="#0d2f33" d="M 854.5,478.5 C 858.13,478.765 861.297,480.098 864,482.5C 867.753,496.053 862.586,501.219 848.5,498C 842.467,492.604 842.134,486.937 847.5,481C 849.927,480.098 852.26,479.264 854.5,478.5 Z"/></g>
<g><path style="opacity:1" fill="#0f3034" d="M 160.5,478.5 C 170.846,477.682 175.68,482.348 175,492.5C 171.638,498.842 166.472,501.008 159.5,499C 153.975,496.081 152.142,491.581 154,485.5C 155.694,482.642 157.861,480.309 160.5,478.5 Z"/></g>
<g><path style="opacity:1" fill="#06242a" d="M 421.5,500.5 C 433.276,498.781 438.776,503.781 438,515.5C 434.802,522.683 429.302,525.516 421.5,524C 415.333,520.155 413.166,514.655 415,507.5C 416.694,504.642 418.861,502.309 421.5,500.5 Z"/></g>
<g><path style="opacity:1" fill="#789497" d="M 701.5,505.5 C 701.238,507.564 700.071,508.897 698,509.5C 697.667,508.833 697.333,508.167 697,507.5C 695.89,509.397 695.724,511.23 696.5,513C 695.692,513.308 695.025,513.808 694.5,514.5C 695.771,514.126 696.938,514.792 698,516.5C 698.423,515.044 699.256,514.544 700.5,515C 699.532,518.405 698.032,518.905 696,516.5C 695.5,517 695,517.5 694.5,518C 695.138,519.707 695.138,521.54 694.5,523.5C 689.97,520.717 688.47,516.717 690,511.5C 691.837,508.322 694.004,506.155 696.5,505C 698.387,504.22 700.054,504.387 701.5,505.5 Z"/></g>
<g><path style="opacity:1" fill="#05232a" d="M 588.5,500.5 C 598.643,498.557 604.643,502.557 606.5,512.5C 603.594,522.285 597.26,525.785 587.5,523C 579.288,515.021 579.622,507.521 588.5,500.5 Z"/></g>
<g><path style="opacity:1" fill="#8ba9ab" d="M 326.5,522.5 C 325.625,520.089 326.625,518.255 329.5,517C 328.874,516.25 328.374,515.416 328,514.5C 324.524,517.186 324.024,516.853 326.5,513.5C 326.023,512.522 325.357,511.689 324.5,511C 324.833,510.667 325.167,510.333 325.5,510C 324.262,510.077 323.262,509.911 322.5,509.5C 323.689,508.571 325.022,508.238 326.5,508.5C 327.117,508.389 327.617,508.056 328,507.5C 329.717,508.988 330.884,510.821 331.5,513C 331.372,515.752 330.539,518.585 329,521.5C 328.329,522.252 327.496,522.586 326.5,522.5 Z"/></g>
<g><path style="opacity:1" fill="#204146" d="M 708.5,507.5 C 710.898,507.259 712.898,507.926 714.5,509.5C 713.224,510.386 713.224,511.386 714.5,512.5C 715.167,512.167 715.833,511.833 716.5,511.5C 718.112,512.558 718.945,513.892 719,515.5C 717.286,514.075 715.953,514.408 715,516.5C 714.667,515.833 714.333,515.167 714,514.5C 713.389,518.272 712.389,518.272 711,514.5C 707.925,515.469 706.925,517.469 708,520.5C 708.483,519.552 708.649,518.552 708.5,517.5C 710.635,517.147 711.968,517.98 712.5,520C 712.2,522.024 711.367,522.524 710,521.5C 709.544,522.744 710.044,523.577 711.5,524C 710.833,524.333 710.167,524.667 709.5,525C 711.027,526.368 712.527,526.868 714,526.5C 714.333,525.833 714.667,525.167 715,524.5C 715.239,526.959 714.739,529.293 713.5,531.5C 710.314,530.403 707.314,529.07 704.5,527.5C 704.649,526.448 704.483,525.448 704,524.5C 703.086,525.654 702.253,525.487 701.5,524C 704.763,523.131 705.096,521.797 702.5,520C 703.167,519.333 703.833,518.667 704.5,518C 703.167,517 703.167,516 704.5,515C 702.998,514.417 701.665,513.584 700.5,512.5C 702.706,512.637 705.04,511.97 707.5,510.5C 707.263,509.209 707.596,508.209 708.5,507.5 Z"/></g>
<g><path style="opacity:1" fill="#4a7076" d="M 315.5,506.5 C 319.192,505.472 322.692,505.472 326,506.5C 326.464,507.094 326.631,507.761 326.5,508.5C 325.022,508.238 323.689,508.571 322.5,509.5C 323.262,509.911 324.262,510.077 325.5,510C 325.167,510.333 324.833,510.667 324.5,511C 325.357,511.689 326.023,512.522 326.5,513.5C 324.024,516.853 324.524,517.186 328,514.5C 328.374,515.416 328.874,516.25 329.5,517C 326.625,518.255 325.625,520.089 326.5,522.5C 326.565,522.938 326.399,523.272 326,523.5C 325.692,522.692 325.192,522.025 324.5,521.5C 324.331,522.397 323.998,523.397 323.5,524.5C 319.366,526.766 315.033,528.432 310.5,529.5C 311.122,527.665 312.456,526.498 314.5,526C 314.167,525.667 313.833,525.333 313.5,525C 314.701,524.097 315.535,522.931 316,521.5C 317.557,522.205 318.723,521.539 319.5,519.5C 317.972,518.139 316.305,516.972 314.5,516C 315.833,515.333 315.833,514.667 314.5,514C 316.112,513.28 317.612,513.446 319,514.5C 319.75,513.874 320.584,513.374 321.5,513C 319.973,511.632 318.473,511.132 317,511.5C 316.5,510.5 316,509.5 315.5,508.5C 316.167,508.167 316.833,507.833 317.5,507.5C 317.043,506.702 316.376,506.369 315.5,506.5 Z"/></g>
<g><path style="opacity:1" fill="#36595e" d="M 701.5,505.5 C 704.218,506.252 706.552,506.919 708.5,507.5C 707.596,508.209 707.263,509.209 707.5,510.5C 705.04,511.97 702.706,512.637 700.5,512.5C 701.665,513.584 702.998,514.417 704.5,515C 703.167,516 703.167,517 704.5,518C 703.833,518.667 703.167,519.333 702.5,520C 705.096,521.797 704.763,523.131 701.5,524C 702.253,525.487 703.086,525.654 704,524.5C 704.483,525.448 704.649,526.448 704.5,527.5C 701.082,526.361 697.749,525.028 694.5,523.5C 695.138,521.54 695.138,519.707 694.5,518C 695,517.5 695.5,517 696,516.5C 698.032,518.905 699.532,518.405 700.5,515C 699.256,514.544 698.423,515.044 698,516.5C 696.938,514.792 695.771,514.126 694.5,514.5C 695.025,513.808 695.692,513.308 696.5,513C 695.724,511.23 695.89,509.397 697,507.5C 697.333,508.167 697.667,508.833 698,509.5C 700.071,508.897 701.238,507.564 701.5,505.5 Z"/></g>
<g><path style="opacity:1" fill="#173a42" d="M 315.5,506.5 C 316.376,506.369 317.043,506.702 317.5,507.5C 316.833,507.833 316.167,508.167 315.5,508.5C 316,509.5 316.5,510.5 317,511.5C 318.473,511.132 319.973,511.632 321.5,513C 320.584,513.374 319.75,513.874 319,514.5C 317.612,513.446 316.112,513.28 314.5,514C 315.833,514.667 315.833,515.333 314.5,516C 316.305,516.972 317.972,518.139 319.5,519.5C 318.723,521.539 317.557,522.205 316,521.5C 315.535,522.931 314.701,524.097 313.5,525C 313.833,525.333 314.167,525.667 314.5,526C 312.456,526.498 311.122,527.665 310.5,529.5C 308.351,530.736 306.018,531.736 303.5,532.5C 302.391,531.71 301.058,531.21 299.5,531C 300.793,530.51 302.127,530.343 303.5,530.5C 302.965,527.762 303.965,525.928 306.5,525C 305.424,523.274 305.257,521.441 306,519.5C 306.219,520.938 306.719,522.271 307.5,523.5C 312.734,522.38 312.734,521.547 307.5,521C 308.524,519.633 308.024,518.8 306,518.5C 304.043,519.884 303.043,519.217 303,516.5C 301.382,516.889 300.215,518.222 299.5,520.5C 298.833,518.167 298.167,515.833 297.5,513.5C 297.089,514.262 296.923,515.262 297,516.5C 295.275,515.536 293.441,514.869 291.5,514.5C 299.205,511.265 307.205,508.598 315.5,506.5 Z"/></g>
<g><path style="opacity:1" fill="#3e5556" d="M 156.5,537.5 C 171.991,536.504 187.658,536.17 203.5,536.5C 190.295,537.184 176.961,537.85 163.5,538.5C 161.253,537.626 158.92,537.292 156.5,537.5 Z"/></g>
<g><path style="opacity:1" fill="#2d5156" d="M 204.5,536.5 C 210.257,535.82 213.923,538.154 215.5,543.5C 214.931,545.972 214.431,548.639 214,551.5C 212.421,553.041 210.587,554.208 208.5,555C 190.662,555.829 172.995,555.662 155.5,554.5C 166.77,554.496 178.437,554.329 190.5,554C 191.766,553.691 192.933,553.191 194,552.5C 194.674,553.578 195.674,554.245 197,554.5C 199.992,553.371 202.659,553.371 205,554.5C 204.232,551.891 203.732,549.391 203.5,547C 206.147,546.685 206.813,545.518 205.5,543.5C 206.263,542.281 207.263,541.281 208.5,540.5C 208.154,539.304 207.654,539.304 207,540.5C 206.383,539.551 206.549,538.718 207.5,538C 206.263,537.768 205.263,537.268 204.5,536.5 Z"/></g>
<g><path style="opacity:1" fill="#224348" d="M 856.5,536.5 C 862.335,535.59 866.335,537.757 868.5,543C 866.859,544.646 867.193,545.646 869.5,546C 867.193,546.354 866.859,547.354 868.5,549C 867.917,551.915 866.25,553.915 863.5,555C 857.843,555.499 852.176,555.666 846.5,555.5C 846.369,554.624 846.702,553.957 847.5,553.5C 850.599,553.974 853.432,553.974 856,553.5C 856.388,551.924 855.888,550.591 854.5,549.5C 852.49,548.498 850.49,547.498 848.5,546.5C 850.936,545.668 853.103,546.335 855,548.5C 855.772,547.151 856.939,546.318 858.5,546C 857.643,545.311 856.977,544.478 856.5,543.5C 857.569,543.64 858.736,543.64 860,543.5C 860.667,542.833 860.667,542.167 860,541.5C 859.346,542.696 858.846,542.696 858.5,541.5C 859.167,540.5 859.833,539.5 860.5,538.5C 859.051,537.828 857.718,537.161 856.5,536.5 Z"/></g>
<g><path style="opacity:1" fill="#0c2c33" d="M 856.5,536.5 C 857.718,537.161 859.051,537.828 860.5,538.5C 859.833,539.5 859.167,540.5 858.5,541.5C 858.846,542.696 859.346,542.696 860,541.5C 860.667,542.167 860.667,542.833 860,543.5C 858.736,543.64 857.569,543.64 856.5,543.5C 856.977,544.478 857.643,545.311 858.5,546C 856.939,546.318 855.772,547.151 855,548.5C 853.103,546.335 850.936,545.668 848.5,546.5C 850.49,547.498 852.49,548.498 854.5,549.5C 855.888,550.591 856.388,551.924 856,553.5C 853.432,553.974 850.599,553.974 847.5,553.5C 846.702,553.957 846.369,554.624 846.5,555.5C 846.167,555.5 845.833,555.5 845.5,555.5C 845.631,554.761 845.464,554.094 845,553.5C 834.577,554.652 824.077,554.819 813.5,554C 807.824,552.822 804.824,549.322 804.5,543.5C 805.062,539.438 807.396,537.271 811.5,537C 826.496,536.5 841.496,536.333 856.5,536.5 Z"/></g>
<g><path style="opacity:1" fill="#082a31" d="M 203.5,536.5 C 203.833,536.5 204.167,536.5 204.5,536.5C 205.263,537.268 206.263,537.768 207.5,538C 206.549,538.718 206.383,539.551 207,540.5C 207.654,539.304 208.154,539.304 208.5,540.5C 207.263,541.281 206.263,542.281 205.5,543.5C 206.813,545.518 206.147,546.685 203.5,547C 203.732,549.391 204.232,551.891 205,554.5C 202.659,553.371 199.992,553.371 197,554.5C 195.674,554.245 194.674,553.578 194,552.5C 192.933,553.191 191.766,553.691 190.5,554C 178.437,554.329 166.77,554.496 155.5,554.5C 149.936,551.936 148.102,547.603 150,541.5C 151.571,539.077 153.737,537.744 156.5,537.5C 158.92,537.292 161.253,537.626 163.5,538.5C 176.961,537.85 190.295,537.184 203.5,536.5 Z"/></g>
<g><path style="opacity:1" fill="#385658" d="M 804.5,543.5 C 804.824,549.322 807.824,552.822 813.5,554C 824.077,554.819 834.577,554.652 845,553.5C 845.464,554.094 845.631,554.761 845.5,555.5C 833.495,555.667 821.495,555.5 809.5,555C 807.64,553.14 805.806,551.306 804,549.5C 803.211,547.288 803.378,545.288 804.5,543.5 Z"/></g>
<g><path style="opacity:1" fill="#022228" d="M 875.5,702.5 C 864.167,702.5 852.833,702.5 841.5,702.5C 841.169,725.006 841.503,747.34 842.5,769.5C 843.641,777.156 847.475,783.156 854,787.5C 860.681,800.31 857.181,809.144 843.5,814C 831.703,814.602 822.37,810.102 815.5,800.5C 810.92,794.96 807.753,788.627 806,781.5C 805.5,755.502 805.333,729.502 805.5,703.5C 798.799,704.243 792.465,703.243 786.5,700.5C 780.562,694.546 779.062,687.546 782,679.5C 783.892,675.942 786.725,673.442 790.5,672C 795.489,671.501 800.489,671.334 805.5,671.5C 805.334,662.161 805.5,652.827 806,643.5C 811.765,629.2 821.598,625.367 835.5,632C 838.293,635.081 840.46,638.581 842,642.5C 842.5,652.161 842.666,661.828 842.5,671.5C 854.838,671.333 867.171,671.5 879.5,672C 889.617,677.692 892.117,685.859 887,696.5C 884.045,700.227 880.212,702.227 875.5,702.5 Z"/></g>
<g><path style="opacity:1" fill="#012127" d="M 421.5,645.5 C 421.5,654.167 421.5,662.833 421.5,671.5C 435.167,671.5 448.833,671.5 462.5,671.5C 476.381,673.865 480.881,681.865 476,695.5C 472.377,700.395 467.544,702.728 461.5,702.5C 447.833,702.5 434.167,702.5 420.5,702.5C 420.17,722.007 420.503,741.341 421.5,760.5C 422.446,766.559 425.113,771.726 429.5,776C 435.221,779.527 441.221,782.527 447.5,785C 458.015,796.825 456.015,806.158 441.5,813C 420.209,813.937 403.709,805.437 392,787.5C 389.117,782.401 386.783,777.067 385,771.5C 384.5,748.836 384.333,726.169 384.5,703.5C 369.444,704.61 362.61,697.61 364,682.5C 366.137,675.858 370.637,672.191 377.5,671.5C 379.833,671.5 382.167,671.5 384.5,671.5C 384.5,663.167 384.5,654.833 384.5,646.5C 388.611,629.612 398.611,624.779 414.5,632C 418.561,635.623 420.895,640.123 421.5,645.5 Z"/></g>
<g><path style="opacity:1" fill="#afc5c8" d="M 384.5,646.5 C 384.5,654.833 384.5,663.167 384.5,671.5C 382.167,671.5 379.833,671.5 377.5,671.5C 379.265,670.539 381.265,670.205 383.5,670.5C 383.174,662.316 383.508,654.316 384.5,646.5 Z"/></g>
<g><path style="opacity:1" fill="#94aaab" d="M 421.5,645.5 C 422.493,653.65 422.826,661.983 422.5,670.5C 436.01,670.171 449.344,670.504 462.5,671.5C 448.833,671.5 435.167,671.5 421.5,671.5C 421.5,662.833 421.5,654.167 421.5,645.5 Z"/></g>
<g><path style="opacity:1" fill="#022128" d="M 191.5,679.5 C 220.616,666.706 244.116,673.373 262,699.5C 270.346,681.565 284.513,672.565 304.5,672.5C 333.336,674.333 352.169,689 361,716.5C 362.962,725.158 362.962,733.825 361,742.5C 358.292,748.94 353.458,752.607 346.5,753.5C 324.157,753.167 301.823,753.5 279.5,754.5C 279.624,755.107 279.957,755.44 280.5,755.5C 287.627,773.068 300.627,780.235 319.5,777C 324.167,775 328.833,773 333.5,771C 345.491,768.989 352.491,773.989 354.5,786C 352.468,795.039 347.134,801.372 338.5,805C 296.201,820.68 265.368,808.18 246,767.5C 243.08,755.358 241.746,743.024 242,730.5C 235.39,708.778 221.557,701.944 200.5,710C 197.223,712.766 194.557,715.933 192.5,719.5C 189.515,724.303 188.015,729.636 188,735.5C 187.968,757.897 187.302,780.23 186,802.5C 179.586,812.082 171.086,814.582 160.5,810C 157.457,807.407 155.29,804.24 154,800.5C 153.333,760.833 153.333,721.167 154,681.5C 159.534,671.989 167.367,669.489 177.5,674C 181.956,677.413 184.456,681.913 185,687.5C 187.001,684.669 189.167,682.003 191.5,679.5 Z"/></g>
<g><path style="opacity:1" fill="#032228" d="M 699.5,672.5 C 733.862,670.256 758.362,684.589 773,715.5C 775.118,720.971 776.451,726.638 777,732.5C 777.667,754.833 777.667,777.167 777,799.5C 772.802,809.517 765.302,813.684 754.5,812C 748.836,809.668 745.336,805.501 744,799.5C 743.667,791.5 743.333,783.5 743,775.5C 741.586,785.075 738.586,794.075 734,802.5C 724.405,810.913 713.239,814.08 700.5,812C 675.315,807.145 658.481,792.645 650,768.5C 646.466,757.821 648.633,748.654 656.5,741C 668.209,735.877 676.709,739.043 682,750.5C 688.184,775.175 703.017,782.675 726.5,773C 740.06,762.324 744.894,748.49 741,731.5C 731.699,707.427 715.199,700.261 691.5,710C 687.783,713.385 683.783,716.385 679.5,719C 661,723.167 653.833,716 658,697.5C 668.688,683.907 682.522,675.574 699.5,672.5 Z"/></g>
<g><path style="opacity:1" fill="#022127" d="M 587.5,672.5 C 599.825,671.548 611.825,673.048 623.5,677C 636.344,681.192 640.844,689.692 637,702.5C 633.488,706.839 628.988,709.506 623.5,710.5C 617.922,709.878 612.589,708.378 607.5,706C 581.597,703.732 567.263,715.565 564.5,741.5C 564.489,758.312 572.156,770.146 587.5,777C 598.061,779.732 608.061,778.399 617.5,773C 632.483,770.984 639.317,777.484 638,792.5C 632.884,801.001 625.384,806.501 615.5,809C 576.663,817.665 549.163,803.831 533,767.5C 522.126,730.109 532.959,700.942 565.5,680C 572.645,676.576 579.979,674.076 587.5,672.5 Z"/></g>
<g><path style="opacity:1" fill="transparent" d="M 301.5,706.5 C 314.892,707.505 322.892,714.505 325.5,727.5C 310.5,727.5 295.5,727.5 280.5,727.5C 283.865,716.801 290.865,709.801 301.5,706.5 Z"/></g>
<g><path style="opacity:1" fill="#5b7173" d="M 461.5,702.5 C 448.344,703.496 435.01,703.829 421.5,703.5C 421.5,722.5 421.5,741.5 421.5,760.5C 420.503,741.341 420.17,722.007 420.5,702.5C 434.167,702.5 447.833,702.5 461.5,702.5 Z"/></g>
<g><path style="opacity:1" fill="#3f5558" d="M 875.5,702.5 C 864.679,703.495 853.679,703.828 842.5,703.5C 842.5,725.5 842.5,747.5 842.5,769.5C 841.503,747.34 841.169,725.006 841.5,702.5C 852.833,702.5 864.167,702.5 875.5,702.5 Z"/></g>
<g><path style="opacity:1" fill="#7b9394" d="M 346.5,753.5 C 324.5,754.167 302.5,754.833 280.5,755.5C 279.957,755.44 279.624,755.107 279.5,754.5C 301.823,753.5 324.157,753.167 346.5,753.5 Z"/></g>
<g><path style="opacity:1" fill="#042429" d="M 491.5,843.5 C 493.414,844.185 495.414,844.685 497.5,845C 503.6,851.376 509.1,858.21 514,865.5C 518.925,858.653 524.092,851.986 529.5,845.5C 534.341,842.335 538.508,843.001 542,847.5C 543.14,856.404 543.64,865.404 543.5,874.5C 543.333,882.833 543.167,891.167 543,899.5C 541.075,902.547 538.242,904.214 534.5,904.5C 532.303,904.152 530.47,903.152 529,901.5C 527.725,892.935 527.058,884.268 527,875.5C 522.955,879.881 518.622,883.881 514,887.5C 512.51,886.683 511.01,885.85 509.5,885C 507.037,881.535 504.204,878.369 501,875.5C 500.667,883.5 500.333,891.5 500,899.5C 495.049,906.154 490.049,906.154 485,899.5C 484.333,882.833 484.333,866.167 485,849.5C 486.436,846.558 488.603,844.558 491.5,843.5 Z"/></g>
<g><path style="opacity:1" fill="#042429" d="M 427.5,875.5 C 427.44,874.957 427.107,874.624 426.5,874.5C 425.502,882.472 425.169,890.472 425.5,898.5C 422.839,904.412 418.506,905.912 412.5,903C 411.54,901.581 410.707,900.081 410,898.5C 409.029,881.409 409.362,864.409 411,847.5C 414.257,844.572 418.091,843.738 422.5,845C 428.708,851.539 434.541,858.373 440,865.5C 444.576,860.013 448.909,854.347 453,848.5C 458.51,841.898 463.844,841.898 469,848.5C 469.667,865.5 469.667,882.5 469,899.5C 465.702,904.774 461.369,905.774 456,902.5C 455.138,900.913 454.471,899.246 454,897.5C 453.667,890.167 453.333,882.833 453,875.5C 449.483,878.717 446.316,882.217 443.5,886C 440.577,888.032 437.911,887.698 435.5,885C 432.707,881.895 430.04,878.728 427.5,875.5 Z"/></g>
<g><path style="opacity:1" fill="#07272d" d="M 647.5,844.5 C 660.266,844.039 672.933,844.539 685.5,846C 689.337,856.028 685.671,860.528 674.5,859.5C 674.667,872.504 674.5,885.504 674,898.5C 670.984,904.372 666.484,905.872 660.5,903C 659.54,901.581 658.707,900.081 658,898.5C 657.5,885.504 657.333,872.504 657.5,859.5C 647.348,861.506 642.848,857.506 644,847.5C 645.145,846.364 646.312,845.364 647.5,844.5 Z"/></g>
<g><path style="opacity:1" fill="#04252c" d="M 563.5,844.5 C 573.839,844.334 584.172,844.5 594.5,845C 600.815,848.78 601.148,853.113 595.5,858C 588.842,858.5 582.175,858.666 575.5,858.5C 575.5,860.833 575.5,863.167 575.5,865.5C 581.176,865.334 586.843,865.501 592.5,866C 598.353,869.451 599.019,873.785 594.5,879C 587.924,880.377 581.257,880.877 574.5,880.5C 574.232,883.119 574.565,885.619 575.5,888C 582.579,888.114 589.579,888.781 596.5,890C 600.911,895.457 599.911,899.79 593.5,903C 583.5,903.667 573.5,903.667 563.5,903C 560.898,902.065 559.398,900.232 559,897.5C 558.333,881.5 558.333,865.5 559,849.5C 560.025,847.313 561.525,845.646 563.5,844.5 Z"/></g>
<g><path style="opacity:1" fill="#06252c" d="M 629.5,875.5 C 629.217,874.711 628.717,874.044 628,873.5C 627.5,881.827 627.334,890.16 627.5,898.5C 624.813,904.405 620.48,905.905 614.5,903C 613.789,901.745 612.956,900.579 612,899.5C 611.333,882.833 611.333,866.167 612,849.5C 615.892,843.043 621.058,841.876 627.5,846C 632.959,853.127 638.792,859.961 645,866.5C 645.667,871.5 645.667,876.5 645,881.5C 643.529,885.546 641.029,886.379 637.5,884C 634.601,881.271 631.934,878.438 629.5,875.5 Z"/></g>
<g><path style="opacity:1" fill="#06252a" d="M 368.5,843.5 C 387.362,844.863 396.695,855.03 396.5,874C 396.951,889.216 389.951,899.216 375.5,904C 361.801,906.068 351.968,900.901 346,888.5C 340.149,872.745 343.315,859.245 355.5,848C 359.614,845.461 363.947,843.961 368.5,843.5 Z"/></g>
<g><path style="opacity:1" fill="#06262a" d="M 242.5,875.5 C 242.52,873.857 241.853,872.524 240.5,871.5C 241.738,868.834 241.738,866.168 240.5,863.5C 239.673,865.162 238.507,866.495 237,867.5C 232.667,867.167 228.333,866.833 224,866.5C 223.667,867.167 223.333,867.833 223,868.5C 218.333,867.167 213.667,867.167 209,868.5C 208,867.833 207,867.167 206,866.5C 195.832,867.076 183.665,867.243 169.5,867C 167.862,866.758 166.362,865.925 165,864.5C 163.601,865.227 162.101,865.727 160.5,866C 161.167,866.333 161.833,866.667 162.5,867C 159.707,869.734 160.041,870.734 163.5,870C 162.443,873.106 163.443,873.939 166.5,872.5C 168.5,873 170.5,873.5 172.5,874C 171.304,874.654 171.304,875.154 172.5,875.5C 179.268,873.15 185.935,873.15 192.5,875.5C 197.833,874.833 203.167,874.167 208.5,873.5C 219.499,874.189 230.499,874.856 241.5,875.5C 241.389,876.117 241.056,876.617 240.5,877C 215.5,877.667 190.5,877.667 165.5,877C 159.891,873.723 158.058,868.89 160,862.5C 161.109,860.185 162.943,858.685 165.5,858C 190.833,857.333 216.167,857.333 241.5,858C 246.223,861.254 247.723,865.754 246,871.5C 245.34,873.324 244.173,874.657 242.5,875.5 Z"/></g>
<g><path style="opacity:1" fill="#03232a" d="M 851.5,876.5 C 844.833,876.5 838.167,876.5 831.5,876.5C 831.389,875.883 831.056,875.383 830.5,875C 812.868,873.436 795.201,873.102 777.5,874C 776.263,874.232 775.263,874.732 774.5,875.5C 773.5,874.167 772.5,874.167 771.5,875.5C 765.322,870.416 764.989,864.916 770.5,859C 784.601,857.859 798.768,857.359 813,857.5C 826.167,857.667 839.333,857.833 852.5,858C 858.484,861.363 859.984,866.197 857,872.5C 855.568,874.439 853.735,875.772 851.5,876.5 Z"/></g>
<g><path style="opacity:1" fill="transparent" d="M 365.5,859.5 C 378.782,859.667 383.615,866.334 380,879.5C 377.616,887.775 372.45,890.275 364.5,887C 356.264,877.431 356.597,868.264 365.5,859.5 Z"/></g>
<g><path style="opacity:1" fill="#02222c" d="M 242.5,875.5 C 242.167,875.5 241.833,875.5 241.5,875.5C 230.499,874.856 219.499,874.189 208.5,873.5C 203.167,874.167 197.833,874.833 192.5,875.5C 185.935,873.15 179.268,873.15 172.5,875.5C 171.304,875.154 171.304,874.654 172.5,874C 170.5,873.5 168.5,873 166.5,872.5C 163.443,873.939 162.443,873.106 163.5,870C 160.041,870.734 159.707,869.734 162.5,867C 161.833,866.667 161.167,866.333 160.5,866C 162.101,865.727 163.601,865.227 165,864.5C 166.362,865.925 167.862,866.758 169.5,867C 183.665,867.243 195.832,867.076 206,866.5C 207,867.167 208,867.833 209,868.5C 213.667,867.167 218.333,867.167 223,868.5C 223.333,867.833 223.667,867.167 224,866.5C 228.333,866.833 232.667,867.167 237,867.5C 238.507,866.495 239.673,865.162 240.5,863.5C 241.738,866.168 241.738,868.834 240.5,871.5C 241.853,872.524 242.52,873.857 242.5,875.5 Z"/></g>
<g><path style="opacity:1" fill="#002824" d="M 831.5,876.5 C 812.326,876.83 793.326,876.497 774.5,875.5C 775.263,874.732 776.263,874.232 777.5,874C 795.201,873.102 812.868,873.436 830.5,875C 831.056,875.383 831.389,875.883 831.5,876.5 Z"/></g>
<g><path style="opacity:1" fill="#2e4e4a" d="M 774.5,875.5 C 793.326,876.497 812.326,876.83 831.5,876.5C 838.167,876.5 844.833,876.5 851.5,876.5C 825.67,877.663 799.67,877.83 773.5,877C 772.584,876.722 771.918,876.222 771.5,875.5C 772.5,874.167 773.5,874.167 774.5,875.5 Z"/></g>
<g><path style="opacity:1" fill="#05242a" d="M 713.5,843.5 C 721.053,842.466 727.887,844.133 734,848.5C 738.748,856.51 736.581,860.676 727.5,861C 723.866,857.995 719.866,857.161 715.5,858.5C 714.167,860.167 714.167,861.833 715.5,863.5C 721.243,865.911 726.909,868.411 732.5,871C 742.229,881.596 741.563,891.596 730.5,901C 721.9,905.434 713.233,905.601 704.5,901.5C 701.386,898.718 699.053,895.385 697.5,891.5C 698.297,887.036 700.964,884.703 705.5,884.5C 709.037,884.935 712.037,886.435 714.5,889C 717.669,889.978 720.503,889.478 723,887.5C 723.756,885.191 723.256,883.191 721.5,881.5C 715.603,879.756 709.936,877.422 704.5,874.5C 697.488,867.227 696.655,859.227 702,850.5C 705.514,847.5 709.347,845.167 713.5,843.5 Z"/></g>
<g><path style="opacity:1" fill="#7d9296" d="M 629.5,875.5 C 628.833,883.167 628.167,890.833 627.5,898.5C 627.334,890.16 627.5,881.827 628,873.5C 628.717,874.044 629.217,874.711 629.5,875.5 Z"/></g>
<g><path style="opacity:1" fill="#052429" d="M 307.5,843.5 C 316.359,842.626 323.859,845.293 330,851.5C 332.458,858.082 330.124,862.082 323,863.5C 319.989,862.41 317.156,860.91 314.5,859C 306.444,857.952 301.611,861.452 300,869.5C 298.574,876.978 300.741,883.144 306.5,888C 309.5,888.667 312.5,888.667 315.5,888C 320.269,882.268 325.269,882.101 330.5,887.5C 332.381,894.242 330.047,899.075 323.5,902C 296.954,907.806 283.787,896.973 284,869.5C 286.494,855.846 294.328,847.179 307.5,843.5 Z"/></g>
<g><path style="opacity:1" fill="#4d6366" d="M 427.5,875.5 C 426.833,883.167 426.167,890.833 425.5,898.5C 425.169,890.472 425.502,882.472 426.5,874.5C 427.107,874.624 427.44,874.957 427.5,875.5 Z"/></g>
</svg>
